<svg xmlns="http://www.w3.org/2000/svg" xmlns:xlink="http://www.w3.org/1999/xlink" zoomAndPan="magnify" preserveAspectRatio="xMidYMid meet" version="1.0" viewBox="770.14 148.9 525.42 520.7"><defs><g/><clipPath id="0dde770d37"><path d="M 1174.222656 459.320312 L 1211.632812 459.320312 L 1211.632812 496.734375 L 1174.222656 496.734375 Z M 1174.222656 459.320312 " clip-rule="nonzero"/></clipPath><clipPath id="27813ef509"><path d="M 1192.929688 459.320312 C 1182.597656 459.320312 1174.222656 467.695312 1174.222656 478.027344 C 1174.222656 488.359375 1182.597656 496.734375 1192.929688 496.734375 C 1203.257812 496.734375 1211.632812 488.359375 1211.632812 478.027344 C 1211.632812 467.695312 1203.257812 459.320312 1192.929688 459.320312 Z M 1192.929688 459.320312 " clip-rule="nonzero"/></clipPath><clipPath id="2ec154c26a"><path d="M 0.222656 0.320312 L 37.632812 0.320312 L 37.632812 37.734375 L 0.222656 37.734375 Z M 0.222656 0.320312 " clip-rule="nonzero"/></clipPath><clipPath id="2c5628065d"><path d="M 18.929688 0.320312 C 8.597656 0.320312 0.222656 8.695312 0.222656 19.027344 C 0.222656 29.359375 8.597656 37.734375 18.929688 37.734375 C 29.257812 37.734375 37.632812 29.359375 37.632812 19.027344 C 37.632812 8.695312 29.257812 0.320312 18.929688 0.320312 Z M 18.929688 0.320312 " clip-rule="nonzero"/></clipPath><clipPath id="0a243c1e5c"><rect x="0" width="38" y="0" height="38"/></clipPath><clipPath id="5ca9b6bafa"><path d="M 992.761719 264.636719 L 1030.171875 264.636719 L 1030.171875 302.046875 L 992.761719 302.046875 Z M 992.761719 264.636719 " clip-rule="nonzero"/></clipPath><clipPath id="2eec27029d"><path d="M 1011.46875 264.636719 C 1001.136719 264.636719 992.761719 273.011719 992.761719 283.339844 C 992.761719 293.671875 1001.136719 302.046875 1011.46875 302.046875 C 1021.796875 302.046875 1030.171875 293.671875 1030.171875 283.339844 C 1030.171875 273.011719 1021.796875 264.636719 1011.46875 264.636719 Z M 1011.46875 264.636719 " clip-rule="nonzero"/></clipPath><clipPath id="7c145382da"><path d="M 0.761719 0.636719 L 38.171875 0.636719 L 38.171875 38.046875 L 0.761719 38.046875 Z M 0.761719 0.636719 " clip-rule="nonzero"/></clipPath><clipPath id="d47d4395ad"><path d="M 19.46875 0.636719 C 9.136719 0.636719 0.761719 9.011719 0.761719 19.339844 C 0.761719 29.671875 9.136719 38.046875 19.46875 38.046875 C 29.796875 38.046875 38.171875 29.671875 38.171875 19.339844 C 38.171875 9.011719 29.796875 0.636719 19.46875 0.636719 Z M 19.46875 0.636719 " clip-rule="nonzero"/></clipPath><clipPath id="af2f570887"><rect x="0" width="39" y="0" height="39"/></clipPath><clipPath id="0bfc2816bf"><path d="M 2 1.160156 L 23.890625 1.160156 L 23.890625 36 L 2 36 Z M 2 1.160156 " clip-rule="nonzero"/></clipPath><clipPath id="902376241d"><rect x="0" width="24" y="0" height="37"/></clipPath></defs><path stroke-linecap="butt" transform="matrix(0.75, 0, 0, 0.75, 783.860007, 628.500924)" fill="none" stroke-linejoin="miter" d="M -0.000842383 1.998768 L 670.59815 1.998768 " stroke="#002c5c" stroke-width="4" stroke-opacity="1" stroke-miterlimit="4"/><path stroke-linecap="round" transform="matrix(0.75, 0, 0, 0.75, 783.860007, 628.500924)" fill-opacity="1" fill="#002c5c" fill-rule="nonzero" stroke-linejoin="round" d="M 671.59815 -4.001233 L 679.59815 1.998768 L 671.59815 7.998768 Z M 671.59815 -4.001233 " stroke="#002c5c" stroke-width="4" stroke-opacity="1" stroke-miterlimit="4"/><path stroke-linecap="butt" transform="matrix(0, -0.75, 0.75, 0, 809.30447, 660.597635)" fill="none" stroke-linejoin="miter" d="M -0.000028645 2.000291 L 670.598963 2.000291 " stroke="#002c5c" stroke-width="4" stroke-opacity="1" stroke-miterlimit="4"/><path stroke-linecap="round" transform="matrix(0, -0.75, 0.75, 0, 809.30447, 660.597635)" fill-opacity="1" fill="#002c5c" fill-rule="nonzero" stroke-linejoin="round" d="M 671.598963 -3.99971 L 679.598964 2.000291 L 671.598963 8.000291 Z M 671.598963 -3.99971 " stroke="#002c5c" stroke-width="4" stroke-opacity="1" stroke-miterlimit="4"/><g fill="#000000" fill-opacity="1"><g transform="translate(1281.310718, 669.599986)"><g><path d="M 5.515625 -7.125 L 0.703125 -13.9375 L 3.296875 -13.9375 L 6.890625 -8.6875 L 10.453125 -13.9375 L 13.03125 -13.9375 L 8.21875 -7.125 L 13.296875 0 L 10.6875 0 L 6.890625 -5.5625 L 3.046875 0 L 0.46875 0 Z M 5.515625 -7.125 "/></g></g></g><g fill="#000000" fill-opacity="1"><g transform="translate(770.110815, 164.815221)"><g><path d="M 0.03125 -13.9375 L 2.46875 -13.9375 L 5.484375 -6 C 6.117188 -4.28125 6.507812 -3.015625 6.65625 -2.203125 L 6.75 -2.203125 C 6.832031 -2.515625 7.007812 -3.097656 7.28125 -3.953125 C 7.550781 -4.816406 7.773438 -5.507812 7.953125 -6.03125 L 10.796875 -13.9375 L 13.25 -13.9375 L 7.25 1.9375 C 6.664062 3.46875 5.972656 4.566406 5.171875 5.234375 C 4.367188 5.910156 3.375 6.25 2.1875 6.25 C 1.550781 6.25 0.921875 6.175781 0.296875 6.03125 L 0.296875 4.21875 C 0.710938 4.320312 1.21875 4.375 1.8125 4.375 C 2.539062 4.375 3.160156 4.171875 3.671875 3.765625 C 4.179688 3.359375 4.59375 2.738281 4.90625 1.90625 L 5.640625 0.046875 Z M 0.03125 -13.9375 "/></g></g></g><g clip-path="url(#0dde770d37)"><g clip-path="url(#27813ef509)"><g transform="matrix(1, 0, 0, 1, 1174, 459)"><g clip-path="url(#0a243c1e5c)"><g clip-path="url(#2ec154c26a)"><g clip-path="url(#2c5628065d)"><path fill="#38b6ff" d="M 0.222656 0.320312 L 37.632812 0.320312 L 37.632812 37.734375 L 0.222656 37.734375 Z M 0.222656 0.320312 " fill-opacity="1" fill-rule="nonzero"/></g></g></g></g></g></g><g clip-path="url(#5ca9b6bafa)"><g clip-path="url(#2eec27029d)"><g transform="matrix(1, 0, 0, 1, 992, 264)"><g clip-path="url(#af2f570887)"><g clip-path="url(#7c145382da)"><g clip-path="url(#d47d4395ad)"><path fill="#ff914d" d="M 0.761719 0.636719 L 38.171875 0.636719 L 38.171875 38.046875 L 0.761719 38.046875 Z M 0.761719 0.636719 " fill-opacity="1" fill-rule="nonzero"/></g></g></g></g></g></g><g fill="#000000" fill-opacity="1"><g transform="translate(1184.619547, 440.172262)"><g><path d="M 14.171875 0 L 11.9375 -5.75 L 4.578125 -5.75 L 2.359375 0 L 0 0 L 7.25 -18.640625 L 9.359375 -18.640625 L 16.59375 0 Z M 11.234375 -7.828125 L 9.15625 -13.4375 L 8.265625 -16.21875 C 8.015625 -15.207031 7.75 -14.28125 7.46875 -13.4375 L 5.359375 -7.828125 Z M 11.234375 -7.828125 "/></g></g></g><g fill="#000000" fill-opacity="1"><g transform="translate(1003.019476, 250.440343)"><g><path d="M 2.53125 -18.5625 L 7.828125 -18.5625 C 10.304688 -18.5625 12.097656 -18.191406 13.203125 -17.453125 C 14.304688 -16.710938 14.859375 -15.550781 14.859375 -13.96875 C 14.859375 -12.863281 14.554688 -11.953125 13.953125 -11.234375 C 13.359375 -10.523438 12.488281 -10.066406 11.34375 -9.859375 L 11.34375 -9.71875 C 12.769531 -9.476562 13.816406 -8.984375 14.484375 -8.234375 C 15.160156 -7.492188 15.5 -6.507812 15.5 -5.28125 C 15.5 -3.625 14.929688 -2.328125 13.796875 -1.390625 C 12.660156 -0.460938 11.078125 0 9.046875 0 L 2.53125 0 Z M 4.859375 -10.671875 L 8.296875 -10.671875 C 9.742188 -10.671875 10.796875 -10.898438 11.453125 -11.359375 C 12.117188 -11.828125 12.453125 -12.609375 12.453125 -13.703125 C 12.453125 -14.710938 12.085938 -15.441406 11.359375 -15.890625 C 10.640625 -16.335938 9.5 -16.5625 7.9375 -16.5625 L 4.859375 -16.5625 Z M 4.859375 -8.703125 L 4.859375 -1.984375 L 8.609375 -1.984375 C 10.097656 -1.984375 11.203125 -2.269531 11.921875 -2.84375 C 12.640625 -3.414062 13 -4.285156 13 -5.453125 C 13 -6.566406 12.617188 -7.382812 11.859375 -7.90625 C 11.097656 -8.4375 9.957031 -8.703125 8.4375 -8.703125 Z M 4.859375 -8.703125 "/></g></g></g><path stroke-linecap="butt" transform="matrix(0.375725, -0.6491, 0.6491, 0.375725, 809.507077, 629.246772)" fill="none" stroke-linejoin="miter" d="M -0.00244467 2.000507 L 509.116391 2.000953 " stroke="#002c5c" stroke-width="4" stroke-opacity="1" stroke-miterlimit="4"/><path stroke-linecap="butt" transform="matrix(0.696907, -0.277165, 0.277165, 0.696907, 810.252397, 628.6065)" fill="none" stroke-linejoin="miter" d="M 0.00246603 2.00053 L 523.364552 1.999494 " stroke="#002c5c" stroke-width="4" stroke-opacity="1" stroke-miterlimit="4"/><path stroke-linecap="butt" transform="matrix(0.549505, 0.510436, -0.510436, 0.549505, 865.586219, 541.236017)" fill="none" stroke-linejoin="miter" d="M 1.412618 21.816457 C 27.767516 -4.605309 54.117823 -4.606977 80.474446 21.815542 " stroke="#002c5c" stroke-width="4" stroke-opacity="1" stroke-miterlimit="4"/><g transform="matrix(1, 0, 0, 1, 896, 522)"><g clip-path="url(#902376241d)"><g clip-path="url(#0bfc2816bf)"><path fill="#000000" d="M 2.804688 25.75 C 2.804688 22.445312 3.4375 18.964844 4.699219 15.304688 C 5.964844 11.644531 7.679688 8.488281 9.851562 5.832031 C 12.019531 3.175781 14.269531 1.652344 16.601562 1.265625 C 16.632812 1.265625 16.765625 1.265625 16.992188 1.265625 C 17.21875 1.265625 17.410156 1.25 17.574219 1.214844 C 19.324219 1.34375 20.683594 2.140625 21.65625 3.597656 C 22.917969 5.539062 23.550781 8.148438 23.550781 11.417969 C 23.550781 15.140625 22.820312 18.929688 21.363281 22.785156 C 19.90625 26.640625 18.042969 29.796875 15.777344 32.257812 C 13.507812 34.71875 11.339844 35.949219 9.265625 35.949219 L 8.925781 35.949219 C 7.761719 35.949219 6.757812 35.625 5.914062 34.980469 C 5.074219 34.332031 4.441406 33.472656 4.019531 32.402344 C 3.597656 31.335938 3.292969 30.25 3.097656 29.148438 C 2.902344 28.046875 2.804688 26.914062 2.804688 25.75 Z M 19.710938 7.96875 C 19.710938 4.664062 18.851562 3.011719 17.136719 3.011719 C 15.972656 3.011719 14.835938 3.742188 13.734375 5.199219 C 12.636719 6.65625 11.726562 8.308594 11.015625 10.15625 C 10.304688 12 9.753906 13.621094 9.363281 15.011719 C 8.976562 16.40625 8.765625 17.214844 8.730469 17.441406 C 10.320312 17.472656 11.890625 17.488281 13.445312 17.488281 L 18.15625 17.441406 C 18.1875 17.410156 18.320312 16.875 18.546875 15.839844 C 18.773438 14.800781 19.03125 13.507812 19.324219 11.953125 C 19.613281 10.398438 19.742188 9.070312 19.710938 7.96875 Z M 6.59375 29.050781 C 6.59375 32.484375 7.453125 34.203125 9.167969 34.203125 C 9.65625 34.203125 10.171875 34.039062 10.722656 33.714844 C 11.273438 33.390625 11.9375 32.777344 12.714844 31.871094 C 13.492188 30.964844 14.269531 29.554688 15.046875 27.644531 C 15.824219 25.734375 16.601562 23.367188 17.378906 20.550781 L 17.621094 19.726562 L 8.148438 19.726562 C 8.148438 19.820312 8.003906 20.4375 7.710938 21.570312 C 7.421875 22.703125 7.160156 23.96875 6.933594 25.359375 C 6.707031 26.753906 6.59375 27.984375 6.59375 29.050781 Z M 6.59375 29.050781 " fill-opacity="1" fill-rule="nonzero"/></g></g></g></svg>