<svg overflow="hidden" xmlns:xlink="http://www.w3.org/1999/xlink" xmlns="http://www.w3.org/2000/svg" viewBox="557.515590551181 259.50096 312.43662542182227 200.15568000000002" style="max-height: 500px" width="312.43662542182227" height="200.15568000000002"><g><rect fill="#FFFFFF" height="720" width="1280" y="0" x="0"/><path fill-rule="evenodd" fill="none" stroke-dasharray="8 6" stroke-miterlimit="8" stroke-width="2" stroke="#156082" d="M578 360 774.779 360"/><path fill-rule="evenodd" fill="none" stroke-miterlimit="8" stroke-width="2" stroke="#156082" d="M681 360C681 310.294 721.294 270 771 270 820.706 270 861 310.294 861 360 861 409.706 820.706 450 771 450 721.294 450 681 409.706 681 360Z"/><path fill-rule="evenodd" fill="#104862" d="M768 360C768 358.343 769.119 357 770.5 357 771.881 357 773 358.343 773 360 773 361.657 771.881 363 770.5 363 769.119 363 768 361.657 768 360Z"/><path fill-rule="evenodd" fill="#104862" d="M678 360C678 358.343 679.119 357 680.5 357 681.881 357 683 358.343 683 360 683 361.657 681.881 363 680.5 363 679.119 363 678 361.657 678 360Z"/><text transform="translate(570.689 389)" font-size="24" font-weight="400" font-family="Cambria Math,Cambria Math_MSFontService,sans-serif">𝑞</text><path fill-opacity="0.780392" fill-rule="evenodd" fill="#FF3300" stroke-miterlimit="8" stroke-width="2" stroke="#C00000" d="M572.135 355.775 572.992 354.871 577.5 359.142 582.008 354.871 582.865 355.775 578.405 360 582.865 364.225 582.008 365.129 577.5 360.858 572.992 365.129 572.135 364.225 576.595 360Z"/><text transform="translate(728.248 349)" font-size="24" font-weight="400" font-family="Cambria Math,Cambria Math_MSFontService,sans-serif">𝑟</text><text transform="translate(626.388 349)" font-size="24" font-weight="400" font-family="Cambria Math,Cambria Math_MSFontService,sans-serif">𝑑</text><text transform="translate(763.152 389)" font-size="24" font-weight="400" font-family="Cambria Math,Cambria Math_MSFontService,sans-serif">𝐶</text></g></svg>