<svg width="1280" height="720" xmlns="http://www.w3.org/2000/svg" xmlns:xlink="http://www.w3.org/1999/xlink" overflow="hidden"><g><rect x="0" y="0" width="1280" height="720" fill="#FFFFFF"/><path d="M578 360 774.779 360" stroke="#156082" stroke-width="2" stroke-miterlimit="8" stroke-dasharray="8 6" fill="none" fill-rule="evenodd"/><path d="M681 360C681 310.294 721.294 270 771 270 820.706 270 861 310.294 861 360 861 409.706 820.706 450 771 450 721.294 450 681 409.706 681 360Z" stroke="#156082" stroke-width="2" stroke-miterlimit="8" fill="none" fill-rule="evenodd"/><path d="M768 360C768 358.343 769.119 357 770.5 357 771.881 357 773 358.343 773 360 773 361.657 771.881 363 770.5 363 769.119 363 768 361.657 768 360Z" fill="#104862" fill-rule="evenodd"/><path d="M678 360C678 358.343 679.119 357 680.5 357 681.881 357 683 358.343 683 360 683 361.657 681.881 363 680.5 363 679.119 363 678 361.657 678 360Z" fill="#104862" fill-rule="evenodd"/><text font-family="Cambria Math,Cambria Math_MSFontService,sans-serif" font-weight="400" font-size="24" transform="translate(570.689 389)">𝑞</text><path d="M572.135 355.775 572.992 354.871 577.5 359.142 582.008 354.871 582.865 355.775 578.405 360 582.865 364.225 582.008 365.129 577.5 360.858 572.992 365.129 572.135 364.225 576.595 360Z" stroke="#C00000" stroke-width="2" stroke-miterlimit="8" fill="#FF3300" fill-rule="evenodd" fill-opacity="0.780392"/><text font-family="Cambria Math,Cambria Math_MSFontService,sans-serif" font-weight="400" font-size="24" transform="translate(728.248 349)">𝑟</text><text font-family="Cambria Math,Cambria Math_MSFontService,sans-serif" font-weight="400" font-size="24" transform="translate(609.329 349)">𝑑</text><text font-family="Cambria Math,Cambria Math_MSFontService,sans-serif" font-weight="400" font-size="17.52" transform="translate(623.163 354)">𝑚𝑖𝑛</text><text font-family="Cambria Math,Cambria Math_MSFontService,sans-serif" font-weight="400" font-size="24" transform="translate(763.152 389)">𝐶</text></g></svg>