<svg overflow="hidden" xmlns:xlink="http://www.w3.org/1999/xlink" xmlns="http://www.w3.org/2000/svg" viewBox="82.939968503937 156.38976 987.707896512936 407.51568" style="max-height: 500px" width="987.707896512936" height="407.51568"><g><rect fill="#FFFFFF" height="720" width="1280" y="0" x="0"/><path fill-rule="evenodd" fill="#A6CAEC" d="M89.1867 165.333 137.717 165.333 137.717 204.267 89.1867 204.267Z"/><path fill-rule="evenodd" fill="#A6CAEC" d="M137.717 165.333 186.247 165.333 186.247 204.267 137.717 204.267Z"/><path fill-rule="evenodd" fill="#A6CAEC" d="M186.247 165.333 234.777 165.333 234.777 204.267 186.247 204.267Z"/><path fill-rule="evenodd" fill="#A6CAEC" d="M234.777 165.333 283.307 165.333 283.307 204.267 234.777 204.267Z"/><path fill-rule="evenodd" fill="#A6CAEC" d="M283.307 165.333 331.838 165.333 331.838 204.267 283.307 204.267Z"/><path fill-rule="evenodd" fill="#A6CAEC" d="M331.838 165.333 380.368 165.333 380.368 204.267 331.838 204.267Z"/><path fill-rule="evenodd" fill="#A6CAEC" d="M380.368 165.333 428.898 165.333 428.898 204.267 380.368 204.267Z"/><path fill-rule="evenodd" fill="#A6CAEC" d="M428.898 165.333 477.428 165.333 477.428 204.267 428.898 204.267Z"/><path fill-rule="evenodd" fill="#A6CAEC" d="M477.428 165.333 525.958 165.333 525.958 204.267 477.428 204.267Z"/><path fill-rule="evenodd" fill="#A6CAEC" d="M525.958 165.333 574.488 165.333 574.488 204.267 525.958 204.267Z"/><path fill-rule="evenodd" fill="#A6CAEC" d="M89.1867 204.267 137.717 204.267 137.717 243.2 89.1867 243.2Z"/><path fill-rule="evenodd" fill="#F6C6AD" d="M137.717 204.267 186.247 204.267 186.247 243.2 137.717 243.2Z"/><path fill-rule="evenodd" fill="#A6CAEC" d="M89.1867 243.2 137.717 243.2 137.717 282.133 89.1867 282.133Z"/><path fill-rule="evenodd" fill="#F6C6AD" d="M137.717 243.2 186.247 243.2 186.247 282.133 137.717 282.133Z"/><path fill-rule="evenodd" fill="#A6CAEC" d="M89.1867 282.133 137.717 282.133 137.717 321.067 89.1867 321.067Z"/><path fill-rule="evenodd" fill="#F6C6AD" d="M186.247 282.133 234.777 282.133 234.777 321.067 186.247 321.067Z"/><path fill-rule="evenodd" fill="#A6CAEC" d="M89.1867 321.067 137.717 321.067 137.717 360 89.1867 360Z"/><path fill-rule="evenodd" fill="#F6C6AD" d="M234.777 321.067 283.307 321.067 283.307 360 234.777 360Z"/><path fill-rule="evenodd" fill="#A6CAEC" d="M89.1867 360 137.717 360 137.717 398.933 89.1867 398.933Z"/><path fill-rule="evenodd" fill="#F6C6AD" d="M283.307 360 331.838 360 331.838 398.933 283.307 398.933Z"/><path fill-rule="evenodd" fill="#F6C6AD" d="M331.838 360 380.368 360 380.368 398.933 331.838 398.933Z"/><path fill-rule="evenodd" fill="#A6CAEC" d="M89.1867 398.933 137.717 398.933 137.717 437.867 89.1867 437.867Z"/><path fill-rule="evenodd" fill="#F6C6AD" d="M380.368 398.933 428.898 398.933 428.898 437.867 380.368 437.867Z"/><path fill-rule="evenodd" fill="#A6CAEC" d="M89.1867 437.867 137.717 437.867 137.717 476.8 89.1867 476.8Z"/><path fill-rule="evenodd" fill="#F6C6AD" d="M428.898 437.867 477.428 437.867 477.428 476.8 428.898 476.8Z"/><path fill-rule="evenodd" fill="#A6CAEC" d="M89.1867 476.8 137.717 476.8 137.717 515.733 89.1867 515.733Z"/><path fill-rule="evenodd" fill="#F6C6AD" d="M477.428 476.8 525.958 476.8 525.958 515.733 477.428 515.733Z"/><path fill-rule="evenodd" fill="#A6CAEC" d="M89.1867 515.733 137.717 515.733 137.717 554.667 89.1867 554.667Z"/><path fill-rule="evenodd" fill="#F6C6AD" d="M525.958 515.733 574.488 515.733 574.488 554.667 525.958 554.667Z"/><path fill-rule="evenodd" fill="none" stroke-miterlimit="10" stroke-linejoin="round" stroke-width="1.33333" stroke="#000000" d="M137.717 164.667 137.717 555.333"/><path fill-rule="evenodd" fill="none" stroke-miterlimit="10" stroke-linejoin="round" stroke-width="1.33333" stroke="#000000" d="M186.247 164.667 186.247 555.333"/><path fill-rule="evenodd" fill="none" stroke-miterlimit="10" stroke-linejoin="round" stroke-width="1.33333" stroke="#000000" d="M234.777 164.667 234.777 555.333"/><path fill-rule="evenodd" fill="none" stroke-miterlimit="10" stroke-linejoin="round" stroke-width="1.33333" stroke="#000000" d="M283.307 164.667 283.307 555.333"/><path fill-rule="evenodd" fill="none" stroke-miterlimit="10" stroke-linejoin="round" stroke-width="1.33333" stroke="#000000" d="M331.838 164.667 331.838 555.333"/><path fill-rule="evenodd" fill="none" stroke-miterlimit="10" stroke-linejoin="round" stroke-width="1.33333" stroke="#000000" d="M380.368 164.667 380.368 555.333"/><path fill-rule="evenodd" fill="none" stroke-miterlimit="10" stroke-linejoin="round" stroke-width="1.33333" stroke="#000000" d="M428.898 164.667 428.898 555.333"/><path fill-rule="evenodd" fill="none" stroke-miterlimit="10" stroke-linejoin="round" stroke-width="1.33333" stroke="#000000" d="M477.428 164.667 477.428 555.333"/><path fill-rule="evenodd" fill="none" stroke-miterlimit="10" stroke-linejoin="round" stroke-width="1.33333" stroke="#000000" d="M525.958 164.667 525.958 555.333"/><path fill-rule="evenodd" fill="none" stroke-miterlimit="10" stroke-linejoin="round" stroke-width="1.33333" stroke="#000000" d="M88.52 204.267 575.155 204.267"/><path fill-rule="evenodd" fill="none" stroke-miterlimit="10" stroke-linejoin="round" stroke-width="1.33333" stroke="#000000" d="M88.52 243.2 575.155 243.2"/><path fill-rule="evenodd" fill="none" stroke-miterlimit="10" stroke-linejoin="round" stroke-width="1.33333" stroke="#000000" d="M88.52 282.133 575.155 282.133"/><path fill-rule="evenodd" fill="none" stroke-miterlimit="10" stroke-linejoin="round" stroke-width="1.33333" stroke="#000000" d="M88.52 321.067 575.155 321.067"/><path fill-rule="evenodd" fill="none" stroke-miterlimit="10" stroke-linejoin="round" stroke-width="1.33333" stroke="#000000" d="M88.52 360 575.155 360"/><path fill-rule="evenodd" fill="none" stroke-miterlimit="10" stroke-linejoin="round" stroke-width="1.33333" stroke="#000000" d="M88.52 398.933 575.155 398.933"/><path fill-rule="evenodd" fill="none" stroke-miterlimit="10" stroke-linejoin="round" stroke-width="1.33333" stroke="#000000" d="M88.52 437.867 575.155 437.867"/><path fill-rule="evenodd" fill="none" stroke-miterlimit="10" stroke-linejoin="round" stroke-width="1.33333" stroke="#000000" d="M88.52 476.8 575.155 476.8"/><path fill-rule="evenodd" fill="none" stroke-miterlimit="10" stroke-linejoin="round" stroke-width="1.33333" stroke="#000000" d="M88.52 515.733 575.155 515.733"/><path fill-rule="evenodd" fill="none" stroke-miterlimit="10" stroke-linejoin="round" stroke-width="1.33333" stroke="#000000" d="M89.1867 164.667 89.1867 555.333"/><path fill-rule="evenodd" fill="none" stroke-miterlimit="10" stroke-linejoin="round" stroke-width="1.33333" stroke="#000000" d="M574.488 164.667 574.488 555.333"/><path fill-rule="evenodd" fill="none" stroke-miterlimit="10" stroke-linejoin="round" stroke-width="1.33333" stroke="#000000" d="M88.52 165.333 575.155 165.333"/><path fill-rule="evenodd" fill="none" stroke-miterlimit="10" stroke-linejoin="round" stroke-width="1.33333" stroke="#000000" d="M88.52 554.667 575.155 554.667"/><text transform="translate(544.473 192)" font-size="24" font-weight="400" font-family="Aptos,Aptos_MSFontService,sans-serif">T</text><text transform="translate(493.193 192)" font-size="24" font-weight="400" font-family="Aptos,Aptos_MSFontService,sans-serif">N</text><text transform="translate(446.08 192)" font-size="24" font-weight="400" font-family="Aptos,Aptos_MSFontService,sans-serif">A</text><text transform="translate(396.133 192)" font-size="24" font-weight="400" font-family="Aptos,Aptos_MSFontService,sans-serif">H</text><text transform="translate(349.186 192)" font-size="24" font-weight="400" font-family="Aptos,Aptos_MSFontService,sans-serif">P</text><text transform="translate(300.906 192)" font-size="24" font-weight="400" font-family="Aptos,Aptos_MSFontService,sans-serif">E</text><text transform="translate(253.042 192)" font-size="24" font-weight="400" font-family="Aptos,Aptos_MSFontService,sans-serif">L</text><text transform="translate(203.845 192)" font-size="24" font-weight="400" font-family="Aptos,Aptos_MSFontService,sans-serif">E</text><text transform="translate(543.807 231)" font-size="24" font-weight="400" font-family="Aptos,Aptos_MSFontService,sans-serif">8</text><text transform="translate(495.277 231)" font-size="24" font-weight="400" font-family="Aptos,Aptos_MSFontService,sans-serif">7</text><text transform="translate(446.746 231)" font-size="24" font-weight="400" font-family="Aptos,Aptos_MSFontService,sans-serif">6</text><text transform="translate(398.216 231)" font-size="24" font-weight="400" font-family="Aptos,Aptos_MSFontService,sans-serif">5</text><text transform="translate(349.686 231)" font-size="24" font-weight="400" font-family="Aptos,Aptos_MSFontService,sans-serif">4</text><text transform="translate(301.156 231)" font-size="24" font-weight="400" font-family="Aptos,Aptos_MSFontService,sans-serif">3</text><text transform="translate(252.626 231)" font-size="24" font-weight="400" font-family="Aptos,Aptos_MSFontService,sans-serif">2</text><text transform="translate(204.095 231)" font-size="24" font-weight="400" font-family="Aptos,Aptos_MSFontService,sans-serif">1</text><text transform="translate(155.565 231)" font-size="24" font-weight="400" font-family="Aptos,Aptos_MSFontService,sans-serif">0</text><text transform="translate(543.807 270)" font-size="24" font-weight="400" font-family="Aptos,Aptos_MSFontService,sans-serif">8</text><text transform="translate(495.277 270)" font-size="24" font-weight="400" font-family="Aptos,Aptos_MSFontService,sans-serif">7</text><text transform="translate(446.746 270)" font-size="24" font-weight="400" font-family="Aptos,Aptos_MSFontService,sans-serif">6</text><text transform="translate(398.216 270)" font-size="24" font-weight="400" font-family="Aptos,Aptos_MSFontService,sans-serif">5</text><text transform="translate(349.686 270)" font-size="24" font-weight="400" font-family="Aptos,Aptos_MSFontService,sans-serif">4</text><text transform="translate(301.156 270)" font-size="24" font-weight="400" font-family="Aptos,Aptos_MSFontService,sans-serif">3</text><text transform="translate(252.626 270)" font-size="24" font-weight="400" font-family="Aptos,Aptos_MSFontService,sans-serif">2</text><text transform="translate(204.095 270)" font-size="24" font-weight="400" font-family="Aptos,Aptos_MSFontService,sans-serif">1</text><text transform="translate(155.565 270)" font-size="24" font-weight="400" font-family="Aptos,Aptos_MSFontService,sans-serif">1</text><text transform="translate(106.202 270)" font-size="24" font-weight="400" font-family="Aptos,Aptos_MSFontService,sans-serif">R</text><text transform="translate(543.807 309)" font-size="24" font-weight="400" font-family="Aptos,Aptos_MSFontService,sans-serif">7</text><text transform="translate(495.277 309)" font-size="24" font-weight="400" font-family="Aptos,Aptos_MSFontService,sans-serif">6</text><text transform="translate(446.746 309)" font-size="24" font-weight="400" font-family="Aptos,Aptos_MSFontService,sans-serif">5</text><text transform="translate(398.216 309)" font-size="24" font-weight="400" font-family="Aptos,Aptos_MSFontService,sans-serif">4</text><text transform="translate(349.686 309)" font-size="24" font-weight="400" font-family="Aptos,Aptos_MSFontService,sans-serif">3</text><text transform="translate(301.156 309)" font-size="24" font-weight="400" font-family="Aptos,Aptos_MSFontService,sans-serif">2</text><text transform="translate(252.626 309)" font-size="24" font-weight="400" font-family="Aptos,Aptos_MSFontService,sans-serif">2</text><text transform="translate(204.095 309)" font-size="24" font-weight="400" font-family="Aptos,Aptos_MSFontService,sans-serif">1</text><text transform="translate(155.565 309)" font-size="24" font-weight="400" font-family="Aptos,Aptos_MSFontService,sans-serif">2</text><text transform="translate(106.785 309)" font-size="24" font-weight="400" font-family="Aptos,Aptos_MSFontService,sans-serif">E</text><text transform="translate(543.807 348)" font-size="24" font-weight="400" font-family="Aptos,Aptos_MSFontService,sans-serif">7</text><text transform="translate(495.277 348)" font-size="24" font-weight="400" font-family="Aptos,Aptos_MSFontService,sans-serif">6</text><text transform="translate(446.746 348)" font-size="24" font-weight="400" font-family="Aptos,Aptos_MSFontService,sans-serif">5</text><text transform="translate(398.216 348)" font-size="24" font-weight="400" font-family="Aptos,Aptos_MSFontService,sans-serif">4</text><text transform="translate(349.686 348)" font-size="24" font-weight="400" font-family="Aptos,Aptos_MSFontService,sans-serif">3</text><text transform="translate(301.156 348)" font-size="24" font-weight="400" font-family="Aptos,Aptos_MSFontService,sans-serif">2</text><text transform="translate(252.626 348)" font-size="24" font-weight="400" font-family="Aptos,Aptos_MSFontService,sans-serif">1</text><text transform="translate(204.095 348)" font-size="24" font-weight="400" font-family="Aptos,Aptos_MSFontService,sans-serif">2</text><text transform="translate(155.565 348)" font-size="24" font-weight="400" font-family="Aptos,Aptos_MSFontService,sans-serif">3</text><text transform="translate(107.452 348)" font-size="24" font-weight="400" font-family="Aptos,Aptos_MSFontService,sans-serif">L</text><text transform="translate(543.807 387)" font-size="24" font-weight="400" font-family="Aptos,Aptos_MSFontService,sans-serif">6</text><text transform="translate(495.277 387)" font-size="24" font-weight="400" font-family="Aptos,Aptos_MSFontService,sans-serif">5</text><text transform="translate(446.746 387)" font-size="24" font-weight="400" font-family="Aptos,Aptos_MSFontService,sans-serif">4</text><text transform="translate(398.216 387)" font-size="24" font-weight="400" font-family="Aptos,Aptos_MSFontService,sans-serif">3</text><text transform="translate(349.686 387)" font-size="24" font-weight="400" font-family="Aptos,Aptos_MSFontService,sans-serif">2</text><text transform="translate(301.156 387)" font-size="24" font-weight="400" font-family="Aptos,Aptos_MSFontService,sans-serif">1</text><text transform="translate(252.626 387)" font-size="24" font-weight="400" font-family="Aptos,Aptos_MSFontService,sans-serif">2</text><text transform="translate(204.095 387)" font-size="24" font-weight="400" font-family="Aptos,Aptos_MSFontService,sans-serif">3</text><text transform="translate(155.565 387)" font-size="24" font-weight="400" font-family="Aptos,Aptos_MSFontService,sans-serif">4</text><text transform="translate(106.785 387)" font-size="24" font-weight="400" font-family="Aptos,Aptos_MSFontService,sans-serif">E</text><text transform="translate(543.807 426)" font-size="24" font-weight="400" font-family="Aptos,Aptos_MSFontService,sans-serif">6</text><text transform="translate(495.277 426)" font-size="24" font-weight="400" font-family="Aptos,Aptos_MSFontService,sans-serif">5</text><text transform="translate(446.746 426)" font-size="24" font-weight="400" font-family="Aptos,Aptos_MSFontService,sans-serif">4</text><text transform="translate(398.216 426)" font-size="24" font-weight="400" font-family="Aptos,Aptos_MSFontService,sans-serif">3</text><text transform="translate(349.686 426)" font-size="24" font-weight="400" font-family="Aptos,Aptos_MSFontService,sans-serif">2</text><text transform="translate(301.156 426)" font-size="24" font-weight="400" font-family="Aptos,Aptos_MSFontService,sans-serif">2</text><text transform="translate(252.626 426)" font-size="24" font-weight="400" font-family="Aptos,Aptos_MSFontService,sans-serif">3</text><text transform="translate(204.095 426)" font-size="24" font-weight="400" font-family="Aptos,Aptos_MSFontService,sans-serif">4</text><text transform="translate(155.565 426)" font-size="24" font-weight="400" font-family="Aptos,Aptos_MSFontService,sans-serif">5</text><text transform="translate(106.452 426)" font-size="24" font-weight="400" font-family="Aptos,Aptos_MSFontService,sans-serif">V</text><text transform="translate(543.807 465)" font-size="24" font-weight="400" font-family="Aptos,Aptos_MSFontService,sans-serif">5</text><text transform="translate(495.277 465)" font-size="24" font-weight="400" font-family="Aptos,Aptos_MSFontService,sans-serif">4</text><text transform="translate(446.746 465)" font-size="24" font-weight="400" font-family="Aptos,Aptos_MSFontService,sans-serif">3</text><text transform="translate(398.216 465)" font-size="24" font-weight="400" font-family="Aptos,Aptos_MSFontService,sans-serif">3</text><text transform="translate(349.686 465)" font-size="24" font-weight="400" font-family="Aptos,Aptos_MSFontService,sans-serif">3</text><text transform="translate(301.156 465)" font-size="24" font-weight="400" font-family="Aptos,Aptos_MSFontService,sans-serif">3</text><text transform="translate(252.626 465)" font-size="24" font-weight="400" font-family="Aptos,Aptos_MSFontService,sans-serif">4</text><text transform="translate(204.095 465)" font-size="24" font-weight="400" font-family="Aptos,Aptos_MSFontService,sans-serif">5</text><text transform="translate(155.565 465)" font-size="24" font-weight="400" font-family="Aptos,Aptos_MSFontService,sans-serif">6</text><text transform="translate(106.368 465)" font-size="24" font-weight="400" font-family="Aptos,Aptos_MSFontService,sans-serif">A</text><text transform="translate(543.807 504)" font-size="24" font-weight="400" font-family="Aptos,Aptos_MSFontService,sans-serif">4</text><text transform="translate(495.277 504)" font-size="24" font-weight="400" font-family="Aptos,Aptos_MSFontService,sans-serif">3</text><text transform="translate(446.746 504)" font-size="24" font-weight="400" font-family="Aptos,Aptos_MSFontService,sans-serif">4</text><text transform="translate(398.216 504)" font-size="24" font-weight="400" font-family="Aptos,Aptos_MSFontService,sans-serif">4</text><text transform="translate(349.686 504)" font-size="24" font-weight="400" font-family="Aptos,Aptos_MSFontService,sans-serif">4</text><text transform="translate(301.156 504)" font-size="24" font-weight="400" font-family="Aptos,Aptos_MSFontService,sans-serif">4</text><text transform="translate(252.626 504)" font-size="24" font-weight="400" font-family="Aptos,Aptos_MSFontService,sans-serif">5</text><text transform="translate(204.095 504)" font-size="24" font-weight="400" font-family="Aptos,Aptos_MSFontService,sans-serif">6</text><text transform="translate(155.565 504)" font-size="24" font-weight="400" font-family="Aptos,Aptos_MSFontService,sans-serif">7</text><text transform="translate(104.952 504)" font-size="24" font-weight="400" font-family="Aptos,Aptos_MSFontService,sans-serif">N</text><text transform="translate(543.807 543)" font-size="24" font-weight="400" font-family="Aptos,Aptos_MSFontService,sans-serif">3</text><text transform="translate(495.277 543)" font-size="24" font-weight="400" font-family="Aptos,Aptos_MSFontService,sans-serif">4</text><text transform="translate(446.746 543)" font-size="24" font-weight="400" font-family="Aptos,Aptos_MSFontService,sans-serif">5</text><text transform="translate(398.216 543)" font-size="24" font-weight="400" font-family="Aptos,Aptos_MSFontService,sans-serif">5</text><text transform="translate(349.686 543)" font-size="24" font-weight="400" font-family="Aptos,Aptos_MSFontService,sans-serif">5</text><text transform="translate(301.156 543)" font-size="24" font-weight="400" font-family="Aptos,Aptos_MSFontService,sans-serif">5</text><text transform="translate(252.626 543)" font-size="24" font-weight="400" font-family="Aptos,Aptos_MSFontService,sans-serif">6</text><text transform="translate(204.095 543)" font-size="24" font-weight="400" font-family="Aptos,Aptos_MSFontService,sans-serif">7</text><text transform="translate(155.565 543)" font-size="24" font-weight="400" font-family="Aptos,Aptos_MSFontService,sans-serif">8</text><text transform="translate(107.702 543)" font-size="24" font-weight="400" font-family="Aptos,Aptos_MSFontService,sans-serif">T</text><text transform="translate(654.655 307)" font-size="53.3333" font-weight="400" font-family="Aptos,Aptos_MSFontService,sans-serif">E</text><text transform="translate(705.988 307)" font-size="53.3333" font-weight="400" font-family="Aptos,Aptos_MSFontService,sans-serif">L</text><text transform="translate(754.322 307)" font-size="53.3333" font-weight="400" font-family="Aptos,Aptos_MSFontService,sans-serif">E</text><text transform="translate(805.655 307)" font-size="53.3333" font-weight="400" font-family="Aptos,Aptos_MSFontService,sans-serif">P</text><text transform="translate(858.155 307)" font-size="53.3333" font-weight="400" font-family="Aptos,Aptos_MSFontService,sans-serif">H</text><text transform="translate(917.488 307)" font-size="53.3333" font-weight="400" font-family="Aptos,Aptos_MSFontService,sans-serif">A</text><text transform="translate(970.655 307)" font-size="53.3333" font-weight="400" font-family="Aptos,Aptos_MSFontService,sans-serif">N</text><text transform="translate(1029.99 307)" font-size="53.3333" font-weight="400" font-family="Aptos,Aptos_MSFontService,sans-serif">T</text><text transform="translate(660.667 437)" font-size="53.3333" font-weight="400" font-family="Aptos,Aptos_MSFontService,sans-serif" fill="#D1D1D1">R</text><text transform="translate(714.667 437)" font-size="53.3333" font-weight="400" font-family="Aptos,Aptos_MSFontService,sans-serif">E</text><text transform="translate(766.001 437)" font-size="53.3333" font-weight="400" font-family="Aptos,Aptos_MSFontService,sans-serif">L</text><text transform="translate(814.334 437)" font-size="53.3333" font-weight="400" font-family="Aptos,Aptos_MSFontService,sans-serif">E</text><text transform="translate(863.501 437)" font-size="53.3333" font-weight="400" font-family="Aptos,Aptos_MSFontService,sans-serif">V</text><text transform="translate(916.334 437)" font-size="53.3333" font-weight="400" font-family="Aptos,Aptos_MSFontService,sans-serif">A</text><text transform="translate(969.501 437)" font-size="53.3333" font-weight="400" font-family="Aptos,Aptos_MSFontService,sans-serif">N</text><text transform="translate(1028.83 437)" font-size="53.3333" font-weight="400" font-family="Aptos,Aptos_MSFontService,sans-serif">T</text><text transform="translate(645.052 475)" font-size="24" font-weight="400" font-family="Aptos,Aptos_MSFontService,sans-serif" fill="#4E95D9">delete</text><text transform="translate(868.763 477)" font-size="24" font-weight="400" font-family="Aptos,Aptos_MSFontService,sans-serif" fill="#4E95D9">insert</text><text transform="translate(886.857 363)" font-size="24" font-weight="400" font-family="Aptos,Aptos_MSFontService,sans-serif" fill="#4E95D9">replace</text><path fill-rule="evenodd" fill="none" stroke-miterlimit="8" stroke-width="2" stroke="#4E95D9" d="M877 317 877 394.482"/><path transform="matrix(-1 0 0 1 703.133 395)" fill-rule="evenodd" fill="none" stroke-miterlimit="8" stroke-width="2" stroke="#4E95D9" d="M0 0 58.1327 53.1167"/><text transform="translate(842.155 554)" font-size="53.3333" font-weight="400" font-family="Aptos,Aptos_MSFontService,sans-serif" fill="#4E95D9">P</text><path transform="matrix(1 0 0 -1 856 501.148)" fill="#4E95D9" d="M1-1.37871e-06 1.0001 69.4818-0.999904 69.4818-1 1.37871e-06ZM4.00009 68.1484 0.000104987 76.1485-3.99991 68.1485Z"/></g></svg>