<svg xmlns="http://www.w3.org/2000/svg" xmlns:xlink="http://www.w3.org/1999/xlink" zoomAndPan="magnify" preserveAspectRatio="xMidYMid meet" version="1.0" viewBox="258.94 148.9 525.42 520.7"><defs><g/><clipPath id="e0d25c656b"><path d="M 318.042969 578.671875 L 355.453125 578.671875 L 355.453125 616.082031 L 318.042969 616.082031 Z M 318.042969 578.671875 " clip-rule="nonzero"/></clipPath><clipPath id="9f2cdb41ac"><path d="M 336.746094 578.671875 C 326.417969 578.671875 318.042969 587.046875 318.042969 597.375 C 318.042969 607.707031 326.417969 616.082031 336.746094 616.082031 C 347.078125 616.082031 355.453125 607.707031 355.453125 597.375 C 355.453125 587.046875 347.078125 578.671875 336.746094 578.671875 Z M 336.746094 578.671875 " clip-rule="nonzero"/></clipPath><clipPath id="9a96adc320"><path d="M 0.0429688 0.671875 L 37.453125 0.671875 L 37.453125 38.082031 L 0.0429688 38.082031 Z M 0.0429688 0.671875 " clip-rule="nonzero"/></clipPath><clipPath id="67d005f9ee"><path d="M 18.746094 0.671875 C 8.417969 0.671875 0.0429688 9.046875 0.0429688 19.375 C 0.0429688 29.707031 8.417969 38.082031 18.746094 38.082031 C 29.078125 38.082031 37.453125 29.707031 37.453125 19.375 C 37.453125 9.046875 29.078125 0.671875 18.746094 0.671875 Z M 18.746094 0.671875 " clip-rule="nonzero"/></clipPath><clipPath id="4260a01270"><rect x="0" width="38" y="0" height="39"/></clipPath><clipPath id="d6569e818e"><path d="M 663.023438 227.460938 L 700.433594 227.460938 L 700.433594 264.871094 L 663.023438 264.871094 Z M 663.023438 227.460938 " clip-rule="nonzero"/></clipPath><clipPath id="68aa1a1dd0"><path d="M 681.730469 227.460938 C 671.398438 227.460938 663.023438 235.835938 663.023438 246.167969 C 663.023438 256.496094 671.398438 264.871094 681.730469 264.871094 C 692.058594 264.871094 700.433594 256.496094 700.433594 246.167969 C 700.433594 235.835938 692.058594 227.460938 681.730469 227.460938 Z M 681.730469 227.460938 " clip-rule="nonzero"/></clipPath><clipPath id="236b65dbea"><path d="M 0.0234375 0.460938 L 37.433594 0.460938 L 37.433594 37.871094 L 0.0234375 37.871094 Z M 0.0234375 0.460938 " clip-rule="nonzero"/></clipPath><clipPath id="3808d8731c"><path d="M 18.730469 0.460938 C 8.398438 0.460938 0.0234375 8.835938 0.0234375 19.167969 C 0.0234375 29.496094 8.398438 37.871094 18.730469 37.871094 C 29.058594 37.871094 37.433594 29.496094 37.433594 19.167969 C 37.433594 8.835938 29.058594 0.460938 18.730469 0.460938 Z M 18.730469 0.460938 " clip-rule="nonzero"/></clipPath><clipPath id="7df7efdd4c"><rect x="0" width="38" y="0" height="38"/></clipPath></defs><path stroke-linecap="butt" transform="matrix(0.75, 0, 0, 0.75, 272.660033, 628.500924)" fill="none" stroke-linejoin="miter" d="M 0.000164993 1.998768 L 670.599157 1.998768 " stroke="#002c5c" stroke-width="4" stroke-opacity="1" stroke-miterlimit="4"/><path stroke-linecap="round" transform="matrix(0.75, 0, 0, 0.75, 272.660033, 628.500924)" fill-opacity="1" fill="#002c5c" fill-rule="nonzero" stroke-linejoin="round" d="M 671.599157 -4.001233 L 679.599158 1.998768 L 671.599157 7.998768 Z M 671.599157 -4.001233 " stroke="#002c5c" stroke-width="4" stroke-opacity="1" stroke-miterlimit="4"/><path stroke-linecap="butt" transform="matrix(0, -0.75, 0.75, 0, 298.104483, 660.597635)" fill="none" stroke-linejoin="miter" d="M -0.000028645 2.001314 L 670.598963 2.001314 " stroke="#002c5c" stroke-width="4" stroke-opacity="1" stroke-miterlimit="4"/><path stroke-linecap="round" transform="matrix(0, -0.75, 0.75, 0, 298.104483, 660.597635)" fill-opacity="1" fill="#002c5c" fill-rule="nonzero" stroke-linejoin="round" d="M 671.598963 -3.998686 L 679.598964 2.001314 L 671.598963 8.001314 Z M 671.598963 -3.998686 " stroke="#002c5c" stroke-width="4" stroke-opacity="1" stroke-miterlimit="4"/><g fill="#000000" fill-opacity="1"><g transform="translate(770.110815, 669.599986)"><g><path d="M 5.515625 -7.125 L 0.703125 -13.9375 L 3.296875 -13.9375 L 6.890625 -8.6875 L 10.453125 -13.9375 L 13.03125 -13.9375 L 8.21875 -7.125 L 13.296875 0 L 10.6875 0 L 6.890625 -5.5625 L 3.046875 0 L 0.46875 0 Z M 5.515625 -7.125 "/></g></g></g><g fill="#000000" fill-opacity="1"><g transform="translate(258.910834, 164.815221)"><g><path d="M 0.03125 -13.9375 L 2.46875 -13.9375 L 5.484375 -6 C 6.117188 -4.28125 6.507812 -3.015625 6.65625 -2.203125 L 6.75 -2.203125 C 6.832031 -2.515625 7.007812 -3.097656 7.28125 -3.953125 C 7.550781 -4.816406 7.773438 -5.507812 7.953125 -6.03125 L 10.796875 -13.9375 L 13.25 -13.9375 L 7.25 1.9375 C 6.664062 3.46875 5.972656 4.566406 5.171875 5.234375 C 4.367188 5.910156 3.375 6.25 2.1875 6.25 C 1.550781 6.25 0.921875 6.175781 0.296875 6.03125 L 0.296875 4.21875 C 0.710938 4.320312 1.21875 4.375 1.8125 4.375 C 2.539062 4.375 3.160156 4.171875 3.671875 3.765625 C 4.179688 3.359375 4.59375 2.738281 4.90625 1.90625 L 5.640625 0.046875 Z M 0.03125 -13.9375 "/></g></g></g><g clip-path="url(#e0d25c656b)"><g clip-path="url(#9f2cdb41ac)"><g transform="matrix(1, 0, 0, 1, 318, 578)"><g clip-path="url(#4260a01270)"><g clip-path="url(#9a96adc320)"><g clip-path="url(#67d005f9ee)"><path fill="#38b6ff" d="M 0.0429688 0.671875 L 37.453125 0.671875 L 37.453125 38.082031 L 0.0429688 38.082031 Z M 0.0429688 0.671875 " fill-opacity="1" fill-rule="nonzero"/></g></g></g></g></g></g><g clip-path="url(#d6569e818e)"><g clip-path="url(#68aa1a1dd0)"><g transform="matrix(1, 0, 0, 1, 663, 227)"><g clip-path="url(#7df7efdd4c)"><g clip-path="url(#236b65dbea)"><g clip-path="url(#3808d8731c)"><path fill="#ff914d" d="M 0.0234375 0.460938 L 37.433594 0.460938 L 37.433594 37.871094 L 0.0234375 37.871094 Z M 0.0234375 0.460938 " fill-opacity="1" fill-rule="nonzero"/></g></g></g></g></g></g><path stroke-linecap="butt" transform="matrix(0.525565, -0.535053, 0.535053, 0.525565, 348.785261, 582.979455)" fill="none" stroke-linejoin="miter" d="M -0.000538907 2.000718 L 606.518779 2.001626 " stroke="#002c5c" stroke-width="4" stroke-opacity="1" stroke-miterlimit="4"/><g fill="#000000" fill-opacity="1"><g transform="translate(328.438319, 559.520608)"><g><path d="M 14.171875 0 L 11.9375 -5.75 L 4.578125 -5.75 L 2.359375 0 L 0 0 L 7.25 -18.640625 L 9.359375 -18.640625 L 16.59375 0 Z M 11.234375 -7.828125 L 9.15625 -13.4375 L 8.265625 -16.21875 C 8.015625 -15.207031 7.75 -14.28125 7.46875 -13.4375 L 5.359375 -7.828125 Z M 11.234375 -7.828125 "/></g></g></g><g fill="#000000" fill-opacity="1"><g transform="translate(673.28078, 298.323843)"><g><path d="M 2.53125 -18.5625 L 7.828125 -18.5625 C 10.304688 -18.5625 12.097656 -18.191406 13.203125 -17.453125 C 14.304688 -16.710938 14.859375 -15.550781 14.859375 -13.96875 C 14.859375 -12.863281 14.554688 -11.953125 13.953125 -11.234375 C 13.359375 -10.523438 12.488281 -10.066406 11.34375 -9.859375 L 11.34375 -9.71875 C 12.769531 -9.476562 13.816406 -8.984375 14.484375 -8.234375 C 15.160156 -7.492188 15.5 -6.507812 15.5 -5.28125 C 15.5 -3.625 14.929688 -2.328125 13.796875 -1.390625 C 12.660156 -0.460938 11.078125 0 9.046875 0 L 2.53125 0 Z M 4.859375 -10.671875 L 8.296875 -10.671875 C 9.742188 -10.671875 10.796875 -10.898438 11.453125 -11.359375 C 12.117188 -11.828125 12.453125 -12.609375 12.453125 -13.703125 C 12.453125 -14.710938 12.085938 -15.441406 11.359375 -15.890625 C 10.640625 -16.335938 9.5 -16.5625 7.9375 -16.5625 L 4.859375 -16.5625 Z M 4.859375 -8.703125 L 4.859375 -1.984375 L 8.609375 -1.984375 C 10.097656 -1.984375 11.203125 -2.269531 11.921875 -2.84375 C 12.640625 -3.414062 13 -4.285156 13 -5.453125 C 13 -6.566406 12.617188 -7.382812 11.859375 -7.90625 C 11.097656 -8.4375 9.957031 -8.703125 8.4375 -8.703125 Z M 4.859375 -8.703125 "/></g></g></g></svg>