<svg overflow="hidden" xmlns:xlink="http://www.w3.org/1999/xlink" xmlns="http://www.w3.org/2000/svg" viewBox="350.46803149606296 114.666912 524.0901687289089 148.31568000000001" style="max-height: 500px" width="524.0901687289089" height="148.31568000000001"><g><rect fill="#FFFFFF" height="720" width="1280" y="0" x="0"/><path fill-rule="evenodd" fill="none" stroke-miterlimit="10" stroke-linejoin="round" stroke-width="1.33333" stroke="#000000" d="M445.621 136.208 445.621 176.475"/><path fill-rule="evenodd" fill="none" stroke-miterlimit="10" stroke-linejoin="round" stroke-width="1.33333" stroke="#000000" d="M492.443 136.208 492.443 176.475"/><path fill-rule="evenodd" fill="none" stroke-miterlimit="10" stroke-linejoin="round" stroke-width="1.33333" stroke="#000000" d="M539.264 136.208 539.264 176.475"/><path fill-rule="evenodd" fill="none" stroke-miterlimit="10" stroke-linejoin="round" stroke-width="1.33333" stroke="#000000" d="M586.086 136.208 586.086 176.475"/><path fill-rule="evenodd" fill="none" stroke-miterlimit="10" stroke-linejoin="round" stroke-width="1.33333" stroke="#000000" d="M632.907 136.208 632.907 176.475"/><path fill-rule="evenodd" fill="none" stroke-miterlimit="10" stroke-linejoin="round" stroke-width="1.33333" stroke="#000000" d="M679.729 136.208 679.729 176.475"/><path fill-rule="evenodd" fill="none" stroke-miterlimit="10" stroke-linejoin="round" stroke-width="1.33333" stroke="#000000" d="M726.551 136.208 726.551 176.475"/><path fill-rule="evenodd" fill="none" stroke-miterlimit="10" stroke-linejoin="round" stroke-width="1.33333" stroke="#000000" d="M773.372 136.208 773.372 176.475"/><path fill-rule="evenodd" fill="none" stroke-miterlimit="10" stroke-linejoin="round" stroke-width="1.33333" stroke="#000000" d="M820.194 136.208 820.194 176.475"/><path fill-rule="evenodd" fill="none" stroke-miterlimit="10" stroke-linejoin="round" stroke-width="1.33333" stroke="#000000" d="M398.799 136.208 398.799 176.475"/><path fill-rule="evenodd" fill="none" stroke-miterlimit="10" stroke-linejoin="round" stroke-width="1.33333" stroke="#000000" d="M867.016 136.208 867.016 176.475"/><path fill-rule="evenodd" fill="none" stroke-miterlimit="10" stroke-linejoin="round" stroke-width="1.33333" stroke="#000000" d="M398.133 136.875 867.682 136.875"/><path fill-rule="evenodd" fill="none" stroke-miterlimit="10" stroke-linejoin="round" stroke-width="1.33333" stroke="#000000" d="M398.133 175.808 867.682 175.808"/><text transform="translate(837.188 164)" font-size="24" font-weight="400" font-family="Aptos,Aptos_MSFontService,sans-serif">1</text><text transform="translate(790.367 164)" font-size="24" font-weight="400" font-family="Aptos,Aptos_MSFontService,sans-serif">0</text><text transform="translate(743.545 164)" font-size="24" font-weight="400" font-family="Aptos,Aptos_MSFontService,sans-serif">0</text><text transform="translate(696.723 164)" font-size="24" font-weight="400" font-family="Aptos,Aptos_MSFontService,sans-serif">1</text><text transform="translate(649.902 164)" font-size="24" font-weight="400" font-family="Aptos,Aptos_MSFontService,sans-serif">0</text><text transform="translate(603.08 164)" font-size="24" font-weight="400" font-family="Aptos,Aptos_MSFontService,sans-serif">0</text><text transform="translate(556.258 164)" font-size="24" font-weight="400" font-family="Aptos,Aptos_MSFontService,sans-serif">1</text><text transform="translate(509.437 164)" font-size="24" font-weight="400" font-family="Aptos,Aptos_MSFontService,sans-serif">1</text><text transform="translate(462.615 164)" font-size="24" font-weight="400" font-family="Aptos,Aptos_MSFontService,sans-serif">0</text><text transform="translate(415.793 164)" font-size="24" font-weight="400" font-family="Aptos,Aptos_MSFontService,sans-serif">1</text><path fill-rule="evenodd" fill="none" stroke-miterlimit="10" stroke-linejoin="round" stroke-width="1.33333" stroke="#000000" d="M445.621 200.46 445.621 240.726"/><path fill-rule="evenodd" fill="none" stroke-miterlimit="10" stroke-linejoin="round" stroke-width="1.33333" stroke="#000000" d="M492.443 200.46 492.443 240.726"/><path fill-rule="evenodd" fill="none" stroke-miterlimit="10" stroke-linejoin="round" stroke-width="1.33333" stroke="#000000" d="M539.264 200.46 539.264 240.726"/><path fill-rule="evenodd" fill="none" stroke-miterlimit="10" stroke-linejoin="round" stroke-width="1.33333" stroke="#000000" d="M586.086 200.46 586.086 240.726"/><path fill-rule="evenodd" fill="none" stroke-miterlimit="10" stroke-linejoin="round" stroke-width="1.33333" stroke="#000000" d="M632.907 200.46 632.907 240.726"/><path fill-rule="evenodd" fill="none" stroke-miterlimit="10" stroke-linejoin="round" stroke-width="1.33333" stroke="#000000" d="M679.729 200.46 679.729 240.726"/><path fill-rule="evenodd" fill="none" stroke-miterlimit="10" stroke-linejoin="round" stroke-width="1.33333" stroke="#000000" d="M726.551 200.46 726.551 240.726"/><path fill-rule="evenodd" fill="none" stroke-miterlimit="10" stroke-linejoin="round" stroke-width="1.33333" stroke="#000000" d="M773.372 200.46 773.372 240.726"/><path fill-rule="evenodd" fill="none" stroke-miterlimit="10" stroke-linejoin="round" stroke-width="1.33333" stroke="#000000" d="M820.194 200.46 820.194 240.726"/><path fill-rule="evenodd" fill="none" stroke-miterlimit="10" stroke-linejoin="round" stroke-width="1.33333" stroke="#000000" d="M398.799 200.46 398.799 240.726"/><path fill-rule="evenodd" fill="none" stroke-miterlimit="10" stroke-linejoin="round" stroke-width="1.33333" stroke="#000000" d="M867.016 200.46 867.016 240.726"/><path fill-rule="evenodd" fill="none" stroke-miterlimit="10" stroke-linejoin="round" stroke-width="1.33333" stroke="#000000" d="M398.133 201.126 867.682 201.126"/><path fill-rule="evenodd" fill="none" stroke-miterlimit="10" stroke-linejoin="round" stroke-width="1.33333" stroke="#000000" d="M398.133 240.06 867.682 240.06"/><text transform="translate(837.188 228)" font-size="24" font-weight="400" font-family="Aptos,Aptos_MSFontService,sans-serif">1</text><text transform="translate(790.367 228)" font-size="24" font-weight="400" font-family="Aptos,Aptos_MSFontService,sans-serif">1</text><text transform="translate(743.545 228)" font-size="24" font-weight="400" font-family="Aptos,Aptos_MSFontService,sans-serif">0</text><text transform="translate(696.723 228)" font-size="24" font-weight="400" font-family="Aptos,Aptos_MSFontService,sans-serif">0</text><text transform="translate(649.902 228)" font-size="24" font-weight="400" font-family="Aptos,Aptos_MSFontService,sans-serif">0</text><text transform="translate(603.08 228)" font-size="24" font-weight="400" font-family="Aptos,Aptos_MSFontService,sans-serif">0</text><text transform="translate(556.258 228)" font-size="24" font-weight="400" font-family="Aptos,Aptos_MSFontService,sans-serif">1</text><text transform="translate(509.437 228)" font-size="24" font-weight="400" font-family="Aptos,Aptos_MSFontService,sans-serif">0</text><text transform="translate(462.615 228)" font-size="24" font-weight="400" font-family="Aptos,Aptos_MSFontService,sans-serif">0</text><text transform="translate(415.793 228)" font-size="24" font-weight="400" font-family="Aptos,Aptos_MSFontService,sans-serif">1</text><text transform="translate(360.691 166)" font-size="37.3333" font-weight="400" font-family="Cambria Math,Cambria Math_MSFontService,sans-serif">𝑥</text><text transform="translate(360.438 229)" font-size="37.3333" font-weight="400" font-family="Cambria Math,Cambria Math_MSFontService,sans-serif">𝑦</text><path fill="#4E95D9" d="M518 182.667 518 194.651 516 194.651 516 182.667ZM513 184 517 176 521 184ZM521 193.318 517 201.318 513 193.318Z"/><path fill="#4E95D9" d="M704 182.667 704 194.651 702 194.651 702 182.667ZM699 184 703 176 707 184ZM707 193.318 703 201.318 699 193.318Z"/><path fill="#4E95D9" d="M798 182.667 798 194.651 796 194.651 796 182.667ZM793 184 797 176 801 184ZM801 193.318 797 201.318 793 193.318Z"/><rect fill="none" stroke-miterlimit="8" stroke-width="2" stroke="#4E95D9" height="129" width="46" y="124" x="493"/><rect fill="none" stroke-miterlimit="8" stroke-width="2" stroke="#4E95D9" height="129" width="46" y="124" x="680"/><rect fill="none" stroke-miterlimit="8" stroke-width="2" stroke="#4E95D9" height="129" width="47" y="124" x="773"/></g></svg>