<svg xmlns="http://www.w3.org/2000/svg" xmlns:xlink="http://www.w3.org/1999/xlink" zoomAndPan="magnify" preserveAspectRatio="xMidYMid meet" version="1.0" viewBox="303.58 127.39 832.84 555.23"><defs><filter x="0%" y="0%" width="100%" height="100%" id="9cdefe9603"><feColorMatrix values="0 0 0 0 1 0 0 0 0 1 0 0 0 0 1 0 0 0 1 0" color-interpolation-filters="sRGB"/></filter><mask id="e85b2ad226"><g filter="url(#9cdefe9603)"><rect x="-144" width="1728" fill="#000000" y="-80.999999" height="971.999992" fill-opacity="0.6"/></g></mask><clipPath id="3ff37da06c"><path d="M 0.195312 0.386719 L 555.417969 0.386719 L 555.417969 555.613281 L 0.195312 555.613281 Z M 0.195312 0.386719 " clip-rule="nonzero"/></clipPath><clipPath id="ada73c478d"><path d="M 277.804688 0.386719 C 124.484375 0.386719 0.195312 124.679688 0.195312 278 C 0.195312 431.320312 124.484375 555.613281 277.804688 555.613281 C 431.125 555.613281 555.417969 431.320312 555.417969 278 C 555.417969 124.679688 431.125 0.386719 277.804688 0.386719 Z M 277.804688 0.386719 " clip-rule="nonzero"/></clipPath><clipPath id="2e89e20ed3"><path d="M 0.195312 0.386719 L 555.417969 0.386719 L 555.417969 555.613281 L 0.195312 555.613281 Z M 0.195312 0.386719 " clip-rule="nonzero"/></clipPath><clipPath id="388289ed3d"><path d="M 277.804688 0.386719 C 124.484375 0.386719 0.195312 124.679688 0.195312 278 C 0.195312 431.320312 124.484375 555.613281 277.804688 555.613281 C 431.125 555.613281 555.417969 431.320312 555.417969 278 C 555.417969 124.679688 431.125 0.386719 277.804688 0.386719 Z M 277.804688 0.386719 " clip-rule="nonzero"/></clipPath><clipPath id="256fa0406e"><rect x="0" width="556" y="0" height="556"/></clipPath><clipPath id="6aeba7874f"><rect x="0" width="556" y="0" height="556"/></clipPath><mask id="50ca7746da"><g filter="url(#9cdefe9603)"><rect x="-144" width="1728" fill="#000000" y="-80.999999" height="971.999992" fill-opacity="0.6"/></g></mask><clipPath id="c01581b377"><path d="M 0.582031 0.386719 L 555.804688 0.386719 L 555.804688 555.613281 L 0.582031 555.613281 Z M 0.582031 0.386719 " clip-rule="nonzero"/></clipPath><clipPath id="9044403776"><path d="M 278.195312 0.386719 C 124.875 0.386719 0.582031 124.679688 0.582031 278 C 0.582031 431.320312 124.875 555.613281 278.195312 555.613281 C 431.515625 555.613281 555.804688 431.320312 555.804688 278 C 555.804688 124.679688 431.515625 0.386719 278.195312 0.386719 Z M 278.195312 0.386719 " clip-rule="nonzero"/></clipPath><clipPath id="739881fff8"><path d="M 0.582031 0.386719 L 555.804688 0.386719 L 555.804688 555.613281 L 0.582031 555.613281 Z M 0.582031 0.386719 " clip-rule="nonzero"/></clipPath><clipPath id="7e7c435fe3"><path d="M 278.195312 0.386719 C 124.875 0.386719 0.582031 124.679688 0.582031 278 C 0.582031 431.320312 124.875 555.613281 278.195312 555.613281 C 431.515625 555.613281 555.804688 431.320312 555.804688 278 C 555.804688 124.679688 431.515625 0.386719 278.195312 0.386719 Z M 278.195312 0.386719 " clip-rule="nonzero"/></clipPath><clipPath id="79b29a37b4"><rect x="0" width="556" y="0" height="556"/></clipPath><clipPath id="1d0ed24b2d"><rect x="0" width="556" y="0" height="556"/></clipPath><clipPath id="e9aa09d61c"><path d="M 442.652344 221.644531 L 467.65625 221.644531 L 467.65625 246.648438 L 442.652344 246.648438 Z M 442.652344 221.644531 " clip-rule="nonzero"/></clipPath><clipPath id="4459806b9f"><path d="M 455.152344 221.644531 C 448.25 221.644531 442.652344 227.242188 442.652344 234.148438 C 442.652344 241.050781 448.25 246.648438 455.152344 246.648438 C 462.058594 246.648438 467.65625 241.050781 467.65625 234.148438 C 467.65625 227.242188 462.058594 221.644531 455.152344 221.644531 Z M 455.152344 221.644531 " clip-rule="nonzero"/></clipPath><clipPath id="3674d6a3f1"><path d="M 0.652344 0.644531 L 25.65625 0.644531 L 25.65625 25.648438 L 0.652344 25.648438 Z M 0.652344 0.644531 " clip-rule="nonzero"/></clipPath><clipPath id="2b03b8f926"><path d="M 13.152344 0.644531 C 6.25 0.644531 0.652344 6.242188 0.652344 13.148438 C 0.652344 20.050781 6.25 25.648438 13.152344 25.648438 C 20.058594 25.648438 25.65625 20.050781 25.65625 13.148438 C 25.65625 6.242188 20.058594 0.644531 13.152344 0.644531 Z M 13.152344 0.644531 " clip-rule="nonzero"/></clipPath><clipPath id="bd269be67f"><rect x="0" width="26" y="0" height="26"/></clipPath><clipPath id="d18749cd85"><path d="M 377.695312 278.097656 L 402.699219 278.097656 L 402.699219 303.101562 L 377.695312 303.101562 Z M 377.695312 278.097656 " clip-rule="nonzero"/></clipPath><clipPath id="a45058d078"><path d="M 390.199219 278.097656 C 383.292969 278.097656 377.695312 283.695312 377.695312 290.597656 C 377.695312 297.503906 383.292969 303.101562 390.199219 303.101562 C 397.101562 303.101562 402.699219 297.503906 402.699219 290.597656 C 402.699219 283.695312 397.101562 278.097656 390.199219 278.097656 Z M 390.199219 278.097656 " clip-rule="nonzero"/></clipPath><clipPath id="6323a50b21"><path d="M 0.695312 0.0976562 L 25.699219 0.0976562 L 25.699219 25.101562 L 0.695312 25.101562 Z M 0.695312 0.0976562 " clip-rule="nonzero"/></clipPath><clipPath id="a780ce94aa"><path d="M 13.199219 0.0976562 C 6.292969 0.0976562 0.695312 5.695312 0.695312 12.597656 C 0.695312 19.503906 6.292969 25.101562 13.199219 25.101562 C 20.101562 25.101562 25.699219 19.503906 25.699219 12.597656 C 25.699219 5.695312 20.101562 0.0976562 13.199219 0.0976562 Z M 13.199219 0.0976562 " clip-rule="nonzero"/></clipPath><clipPath id="263a885471"><rect x="0" width="26" y="0" height="26"/></clipPath><clipPath id="950ee1d54f"><path d="M 467.65625 342.5625 L 492.660156 342.5625 L 492.660156 367.566406 L 467.65625 367.566406 Z M 467.65625 342.5625 " clip-rule="nonzero"/></clipPath><clipPath id="b97bfc90c6"><path d="M 480.15625 342.5625 C 473.253906 342.5625 467.65625 348.160156 467.65625 355.0625 C 467.65625 361.96875 473.253906 367.566406 480.15625 367.566406 C 487.0625 367.566406 492.660156 361.96875 492.660156 355.0625 C 492.660156 348.160156 487.0625 342.5625 480.15625 342.5625 Z M 480.15625 342.5625 " clip-rule="nonzero"/></clipPath><clipPath id="823db95480"><path d="M 0.65625 0.5625 L 25.660156 0.5625 L 25.660156 25.566406 L 0.65625 25.566406 Z M 0.65625 0.5625 " clip-rule="nonzero"/></clipPath><clipPath id="f2e68d29e7"><path d="M 13.15625 0.5625 C 6.253906 0.5625 0.65625 6.160156 0.65625 13.0625 C 0.65625 19.96875 6.253906 25.566406 13.15625 25.566406 C 20.0625 25.566406 25.660156 19.96875 25.660156 13.0625 C 25.660156 6.160156 20.0625 0.5625 13.15625 0.5625 Z M 13.15625 0.5625 " clip-rule="nonzero"/></clipPath><clipPath id="412f1198b1"><rect x="0" width="26" y="0" height="26"/></clipPath><clipPath id="b171d3ed5b"><path d="M 543.6875 253.09375 L 568.691406 253.09375 L 568.691406 278.097656 L 543.6875 278.097656 Z M 543.6875 253.09375 " clip-rule="nonzero"/></clipPath><clipPath id="296b59fb42"><path d="M 556.191406 253.09375 C 549.285156 253.09375 543.6875 258.691406 543.6875 265.59375 C 543.6875 272.5 549.285156 278.097656 556.191406 278.097656 C 563.09375 278.097656 568.691406 272.5 568.691406 265.59375 C 568.691406 258.691406 563.09375 253.09375 556.191406 253.09375 Z M 556.191406 253.09375 " clip-rule="nonzero"/></clipPath><clipPath id="3b5724564a"><path d="M 0.6875 0.09375 L 25.691406 0.09375 L 25.691406 25.097656 L 0.6875 25.097656 Z M 0.6875 0.09375 " clip-rule="nonzero"/></clipPath><clipPath id="058899a8b8"><path d="M 13.191406 0.09375 C 6.285156 0.09375 0.6875 5.691406 0.6875 12.59375 C 0.6875 19.5 6.285156 25.097656 13.191406 25.097656 C 20.09375 25.097656 25.691406 19.5 25.691406 12.59375 C 25.691406 5.691406 20.09375 0.09375 13.191406 0.09375 Z M 13.191406 0.09375 " clip-rule="nonzero"/></clipPath><clipPath id="417290d1d5"><rect x="0" width="26" y="0" height="26"/></clipPath><clipPath id="b0f6f805b5"><path d="M 417.648438 398.503906 L 442.652344 398.503906 L 442.652344 423.507812 L 417.648438 423.507812 Z M 417.648438 398.503906 " clip-rule="nonzero"/></clipPath><clipPath id="87a0f4fb9f"><path d="M 430.148438 398.503906 C 423.246094 398.503906 417.648438 404.101562 417.648438 411.003906 C 417.648438 417.910156 423.246094 423.507812 430.148438 423.507812 C 437.054688 423.507812 442.652344 417.910156 442.652344 411.003906 C 442.652344 404.101562 437.054688 398.503906 430.148438 398.503906 Z M 430.148438 398.503906 " clip-rule="nonzero"/></clipPath><clipPath id="329d5476da"><path d="M 0.648438 0.503906 L 25.652344 0.503906 L 25.652344 25.507812 L 0.648438 25.507812 Z M 0.648438 0.503906 " clip-rule="nonzero"/></clipPath><clipPath id="b8ddb57795"><path d="M 13.148438 0.503906 C 6.246094 0.503906 0.648438 6.101562 0.648438 13.003906 C 0.648438 19.910156 6.246094 25.507812 13.148438 25.507812 C 20.054688 25.507812 25.652344 19.910156 25.652344 13.003906 C 25.652344 6.101562 20.054688 0.503906 13.148438 0.503906 Z M 13.148438 0.503906 " clip-rule="nonzero"/></clipPath><clipPath id="d78192a4f9"><rect x="0" width="26" y="0" height="26"/></clipPath><clipPath id="92d9d29924"><path d="M 543.6875 188.667969 L 568.691406 188.667969 L 568.691406 213.671875 L 543.6875 213.671875 Z M 543.6875 188.667969 " clip-rule="nonzero"/></clipPath><clipPath id="cae7252a18"><path d="M 556.191406 188.667969 C 549.285156 188.667969 543.6875 194.265625 543.6875 201.171875 C 543.6875 208.074219 549.285156 213.671875 556.191406 213.671875 C 563.09375 213.671875 568.691406 208.074219 568.691406 201.171875 C 568.691406 194.265625 563.09375 188.667969 556.191406 188.667969 Z M 556.191406 188.667969 " clip-rule="nonzero"/></clipPath><clipPath id="6df5ecbc5c"><path d="M 0.6875 0.667969 L 25.691406 0.667969 L 25.691406 25.671875 L 0.6875 25.671875 Z M 0.6875 0.667969 " clip-rule="nonzero"/></clipPath><clipPath id="f53cd87f7b"><path d="M 13.191406 0.667969 C 6.285156 0.667969 0.6875 6.265625 0.6875 13.171875 C 0.6875 20.074219 6.285156 25.671875 13.191406 25.671875 C 20.09375 25.671875 25.691406 20.074219 25.691406 13.171875 C 25.691406 6.265625 20.09375 0.667969 13.191406 0.667969 Z M 13.191406 0.667969 " clip-rule="nonzero"/></clipPath><clipPath id="03d13bcd9c"><rect x="0" width="26" y="0" height="26"/></clipPath><clipPath id="68705b6205"><path d="M 499.125 423.507812 L 524.125 423.507812 L 524.125 448.511719 L 499.125 448.511719 Z M 499.125 423.507812 " clip-rule="nonzero"/></clipPath><clipPath id="83289f039c"><path d="M 511.625 423.507812 C 504.71875 423.507812 499.125 429.105469 499.125 436.007812 C 499.125 442.914062 504.71875 448.511719 511.625 448.511719 C 518.53125 448.511719 524.125 442.914062 524.125 436.007812 C 524.125 429.105469 518.53125 423.507812 511.625 423.507812 Z M 511.625 423.507812 " clip-rule="nonzero"/></clipPath><clipPath id="1ff8fb0911"><path d="M 0.125 0.507812 L 25.125 0.507812 L 25.125 25.511719 L 0.125 25.511719 Z M 0.125 0.507812 " clip-rule="nonzero"/></clipPath><clipPath id="8e7e160358"><path d="M 12.625 0.507812 C 5.71875 0.507812 0.125 6.105469 0.125 13.007812 C 0.125 19.914062 5.71875 25.511719 12.625 25.511719 C 19.53125 25.511719 25.125 19.914062 25.125 13.007812 C 25.125 6.105469 19.53125 0.507812 12.625 0.507812 Z M 12.625 0.507812 " clip-rule="nonzero"/></clipPath><clipPath id="28eba968a4"><rect x="0" width="26" y="0" height="26"/></clipPath><clipPath id="395f7a6512"><path d="M 707.5 336.566406 L 732.5 336.566406 L 732.5 361.570312 L 707.5 361.570312 Z M 707.5 336.566406 " clip-rule="nonzero"/></clipPath><clipPath id="4c54a4ed7a"><path d="M 720 336.566406 C 713.09375 336.566406 707.5 342.164062 707.5 349.070312 C 707.5 355.972656 713.09375 361.570312 720 361.570312 C 726.90625 361.570312 732.5 355.972656 732.5 349.070312 C 732.5 342.164062 726.90625 336.566406 720 336.566406 Z M 720 336.566406 " clip-rule="nonzero"/></clipPath><clipPath id="09b70d7fdc"><path d="M 0.5 0.566406 L 25.5 0.566406 L 25.5 25.570312 L 0.5 25.570312 Z M 0.5 0.566406 " clip-rule="nonzero"/></clipPath><clipPath id="b59ec55cc4"><path d="M 13 0.566406 C 6.09375 0.566406 0.5 6.164062 0.5 13.070312 C 0.5 19.972656 6.09375 25.570312 13 25.570312 C 19.90625 25.570312 25.5 19.972656 25.5 13.070312 C 25.5 6.164062 19.90625 0.566406 13 0.566406 Z M 13 0.566406 " clip-rule="nonzero"/></clipPath><clipPath id="db202e74c8"><rect x="0" width="26" y="0" height="26"/></clipPath><clipPath id="c9715dbb17"><path d="M 964.832031 234.148438 L 989.832031 234.148438 L 989.832031 259.152344 L 964.832031 259.152344 Z M 964.832031 234.148438 " clip-rule="nonzero"/></clipPath><clipPath id="e3057e97ab"><path d="M 977.332031 234.148438 C 970.425781 234.148438 964.832031 239.746094 964.832031 246.648438 C 964.832031 253.554688 970.425781 259.152344 977.332031 259.152344 C 984.238281 259.152344 989.832031 253.554688 989.832031 246.648438 C 989.832031 239.746094 984.238281 234.148438 977.332031 234.148438 Z M 977.332031 234.148438 " clip-rule="nonzero"/></clipPath><clipPath id="4a27752ad5"><path d="M 0.832031 0.148438 L 25.832031 0.148438 L 25.832031 25.152344 L 0.832031 25.152344 Z M 0.832031 0.148438 " clip-rule="nonzero"/></clipPath><clipPath id="4aecdb65ef"><path d="M 13.332031 0.148438 C 6.425781 0.148438 0.832031 5.746094 0.832031 12.648438 C 0.832031 19.554688 6.425781 25.152344 13.332031 25.152344 C 20.238281 25.152344 25.832031 19.554688 25.832031 12.648438 C 25.832031 5.746094 20.238281 0.148438 13.332031 0.148438 Z M 13.332031 0.148438 " clip-rule="nonzero"/></clipPath><clipPath id="fbfe4d629c"><rect x="0" width="26" y="0" height="26"/></clipPath><clipPath id="d2144ac04e"><path d="M 757.503906 278.097656 L 782.507812 278.097656 L 782.507812 303.101562 L 757.503906 303.101562 Z M 757.503906 278.097656 " clip-rule="nonzero"/></clipPath><clipPath id="ae07efd125"><path d="M 770.007812 278.097656 C 763.101562 278.097656 757.503906 283.695312 757.503906 290.597656 C 757.503906 297.503906 763.101562 303.101562 770.007812 303.101562 C 776.910156 303.101562 782.507812 297.503906 782.507812 290.597656 C 782.507812 283.695312 776.910156 278.097656 770.007812 278.097656 Z M 770.007812 278.097656 " clip-rule="nonzero"/></clipPath><clipPath id="974827ff08"><path d="M 0.503906 0.0976562 L 25.507812 0.0976562 L 25.507812 25.101562 L 0.503906 25.101562 Z M 0.503906 0.0976562 " clip-rule="nonzero"/></clipPath><clipPath id="14b897a432"><path d="M 13.007812 0.0976562 C 6.101562 0.0976562 0.503906 5.695312 0.503906 12.597656 C 0.503906 19.503906 6.101562 25.101562 13.007812 25.101562 C 19.910156 25.101562 25.507812 19.503906 25.507812 12.597656 C 25.507812 5.695312 19.910156 0.0976562 13.007812 0.0976562 Z M 13.007812 0.0976562 " clip-rule="nonzero"/></clipPath><clipPath id="80c85f0605"><rect x="0" width="26" y="0" height="26"/></clipPath><clipPath id="6585799a03"><path d="M 914.824219 379.996094 L 939.828125 379.996094 L 939.828125 405 L 914.824219 405 Z M 914.824219 379.996094 " clip-rule="nonzero"/></clipPath><clipPath id="207ec4259c"><path d="M 927.324219 379.996094 C 920.421875 379.996094 914.824219 385.59375 914.824219 392.5 C 914.824219 399.402344 920.421875 405 927.324219 405 C 934.230469 405 939.828125 399.402344 939.828125 392.5 C 939.828125 385.59375 934.230469 379.996094 927.324219 379.996094 Z M 927.324219 379.996094 " clip-rule="nonzero"/></clipPath><clipPath id="ba0c7f649c"><path d="M 0.824219 0.996094 L 25.828125 0.996094 L 25.828125 26 L 0.824219 26 Z M 0.824219 0.996094 " clip-rule="nonzero"/></clipPath><clipPath id="c893126947"><path d="M 13.324219 0.996094 C 6.421875 0.996094 0.824219 6.59375 0.824219 13.5 C 0.824219 20.402344 6.421875 26 13.324219 26 C 20.230469 26 25.828125 20.402344 25.828125 13.5 C 25.828125 6.59375 20.230469 0.996094 13.324219 0.996094 Z M 13.324219 0.996094 " clip-rule="nonzero"/></clipPath><clipPath id="2350993869"><rect x="0" width="26" y="0" height="26"/></clipPath><clipPath id="97666e8382"><path d="M 821.300781 196.644531 L 846.304688 196.644531 L 846.304688 221.644531 L 821.300781 221.644531 Z M 821.300781 196.644531 " clip-rule="nonzero"/></clipPath><clipPath id="987a2777fa"><path d="M 833.800781 196.644531 C 826.898438 196.644531 821.300781 202.242188 821.300781 209.144531 C 821.300781 216.050781 826.898438 221.644531 833.800781 221.644531 C 840.707031 221.644531 846.304688 216.050781 846.304688 209.144531 C 846.304688 202.242188 840.707031 196.644531 833.800781 196.644531 Z M 833.800781 196.644531 " clip-rule="nonzero"/></clipPath><clipPath id="a3bae90cf3"><path d="M 0.300781 0.644531 L 25.304688 0.644531 L 25.304688 25.644531 L 0.300781 25.644531 Z M 0.300781 0.644531 " clip-rule="nonzero"/></clipPath><clipPath id="687bed91b1"><path d="M 12.800781 0.644531 C 5.898438 0.644531 0.300781 6.242188 0.300781 13.144531 C 0.300781 20.050781 5.898438 25.644531 12.800781 25.644531 C 19.707031 25.644531 25.304688 20.050781 25.304688 13.144531 C 25.304688 6.242188 19.707031 0.644531 12.800781 0.644531 Z M 12.800781 0.644531 " clip-rule="nonzero"/></clipPath><clipPath id="41e5da374b"><rect x="0" width="26" y="0" height="26"/></clipPath><clipPath id="e34cd557df"><path d="M 635.519531 392.5 L 660.523438 392.5 L 660.523438 417.5 L 635.519531 417.5 Z M 635.519531 392.5 " clip-rule="nonzero"/></clipPath><clipPath id="1b44358256"><path d="M 648.019531 392.5 C 641.117188 392.5 635.519531 398.09375 635.519531 405 C 635.519531 411.90625 641.117188 417.5 648.019531 417.5 C 654.925781 417.5 660.523438 411.90625 660.523438 405 C 660.523438 398.09375 654.925781 392.5 648.019531 392.5 Z M 648.019531 392.5 " clip-rule="nonzero"/></clipPath><clipPath id="b7785480af"><path d="M 0.519531 0.5 L 25.523438 0.5 L 25.523438 25.5 L 0.519531 25.5 Z M 0.519531 0.5 " clip-rule="nonzero"/></clipPath><clipPath id="5c186ba611"><path d="M 13.019531 0.5 C 6.117188 0.5 0.519531 6.09375 0.519531 13 C 0.519531 19.90625 6.117188 25.5 13.019531 25.5 C 19.925781 25.5 25.523438 19.90625 25.523438 13 C 25.523438 6.09375 19.925781 0.5 13.019531 0.5 Z M 13.019531 0.5 " clip-rule="nonzero"/></clipPath><clipPath id="2642ee5985"><rect x="0" width="26" y="0" height="26"/></clipPath><clipPath id="a3561e9d40"><path d="M 648.019531 448.511719 L 673.023438 448.511719 L 673.023438 473.511719 L 648.019531 473.511719 Z M 648.019531 448.511719 " clip-rule="nonzero"/></clipPath><clipPath id="9732171d01"><path d="M 660.523438 448.511719 C 653.617188 448.511719 648.019531 454.105469 648.019531 461.011719 C 648.019531 467.917969 653.617188 473.511719 660.523438 473.511719 C 667.425781 473.511719 673.023438 467.917969 673.023438 461.011719 C 673.023438 454.105469 667.425781 448.511719 660.523438 448.511719 Z M 660.523438 448.511719 " clip-rule="nonzero"/></clipPath><clipPath id="74e3484e51"><path d="M 0.0195312 0.511719 L 25.023438 0.511719 L 25.023438 25.511719 L 0.0195312 25.511719 Z M 0.0195312 0.511719 " clip-rule="nonzero"/></clipPath><clipPath id="77cecd8391"><path d="M 12.523438 0.511719 C 5.617188 0.511719 0.0195312 6.105469 0.0195312 13.011719 C 0.0195312 19.917969 5.617188 25.511719 12.523438 25.511719 C 19.425781 25.511719 25.023438 19.917969 25.023438 13.011719 C 25.023438 6.105469 19.425781 0.511719 12.523438 0.511719 Z M 12.523438 0.511719 " clip-rule="nonzero"/></clipPath><clipPath id="2a44083e1e"><rect x="0" width="26" y="0" height="26"/></clipPath><clipPath id="6cf2714b88"><path d="M 833.800781 616.683594 L 858.804688 616.683594 L 858.804688 641.6875 L 833.800781 641.6875 Z M 833.800781 616.683594 " clip-rule="nonzero"/></clipPath><clipPath id="4a7737001a"><path d="M 846.304688 616.683594 C 839.398438 616.683594 833.800781 622.28125 833.800781 629.183594 C 833.800781 636.089844 839.398438 641.6875 846.304688 641.6875 C 853.207031 641.6875 858.804688 636.089844 858.804688 629.183594 C 858.804688 622.28125 853.207031 616.683594 846.304688 616.683594 Z M 846.304688 616.683594 " clip-rule="nonzero"/></clipPath><clipPath id="7d741def4e"><path d="M 0.800781 0.683594 L 25.804688 0.683594 L 25.804688 25.6875 L 0.800781 25.6875 Z M 0.800781 0.683594 " clip-rule="nonzero"/></clipPath><clipPath id="79f6f9f844"><path d="M 13.304688 0.683594 C 6.398438 0.683594 0.800781 6.28125 0.800781 13.183594 C 0.800781 20.089844 6.398438 25.6875 13.304688 25.6875 C 20.207031 25.6875 25.804688 20.089844 25.804688 13.183594 C 25.804688 6.28125 20.207031 0.683594 13.304688 0.683594 Z M 13.304688 0.683594 " clip-rule="nonzero"/></clipPath><clipPath id="8ac27bcc6d"><rect x="0" width="26" y="0" height="26"/></clipPath><clipPath id="826211ae66"><path d="M 603.050781 330.0625 L 628.054688 330.0625 L 628.054688 355.0625 L 603.050781 355.0625 Z M 603.050781 330.0625 " clip-rule="nonzero"/></clipPath><clipPath id="75f3958e48"><path d="M 615.554688 330.0625 C 608.648438 330.0625 603.050781 335.660156 603.050781 342.5625 C 603.050781 349.46875 608.648438 355.0625 615.554688 355.0625 C 622.457031 355.0625 628.054688 349.46875 628.054688 342.5625 C 628.054688 335.660156 622.457031 330.0625 615.554688 330.0625 Z M 615.554688 330.0625 " clip-rule="nonzero"/></clipPath><clipPath id="e5b90d8f7c"><path d="M 0.0507812 0.0625 L 25.054688 0.0625 L 25.054688 25.0625 L 0.0507812 25.0625 Z M 0.0507812 0.0625 " clip-rule="nonzero"/></clipPath><clipPath id="22fe82c7bf"><path d="M 12.554688 0.0625 C 5.648438 0.0625 0.0507812 5.660156 0.0507812 12.5625 C 0.0507812 19.46875 5.648438 25.0625 12.554688 25.0625 C 19.457031 25.0625 25.054688 19.46875 25.054688 12.5625 C 25.054688 5.660156 19.457031 0.0625 12.554688 0.0625 Z M 12.554688 0.0625 " clip-rule="nonzero"/></clipPath><clipPath id="fff322c51d"><rect x="0" width="26" y="0" height="26"/></clipPath><clipPath id="19eff58a25"><path d="M 660.523438 305.058594 L 685.523438 305.058594 L 685.523438 330.0625 L 660.523438 330.0625 Z M 660.523438 305.058594 " clip-rule="nonzero"/></clipPath><clipPath id="434b31cfbf"><path d="M 673.023438 305.058594 C 666.117188 305.058594 660.523438 310.65625 660.523438 317.558594 C 660.523438 324.464844 666.117188 330.0625 673.023438 330.0625 C 679.929688 330.0625 685.523438 324.464844 685.523438 317.558594 C 685.523438 310.65625 679.929688 305.058594 673.023438 305.058594 Z M 673.023438 305.058594 " clip-rule="nonzero"/></clipPath><clipPath id="0e027820b6"><path d="M 0.523438 0.0585938 L 25.523438 0.0585938 L 25.523438 25.0625 L 0.523438 25.0625 Z M 0.523438 0.0585938 " clip-rule="nonzero"/></clipPath><clipPath id="feee70ce68"><path d="M 13.023438 0.0585938 C 6.117188 0.0585938 0.523438 5.65625 0.523438 12.558594 C 0.523438 19.464844 6.117188 25.0625 13.023438 25.0625 C 19.929688 25.0625 25.523438 19.464844 25.523438 12.558594 C 25.523438 5.65625 19.929688 0.0585938 13.023438 0.0585938 Z M 13.023438 0.0585938 " clip-rule="nonzero"/></clipPath><clipPath id="a888909d20"><rect x="0" width="26" y="0" height="26"/></clipPath><clipPath id="52344fa304"><path d="M 902.324219 163.667969 L 927.324219 163.667969 L 927.324219 188.667969 L 902.324219 188.667969 Z M 902.324219 163.667969 " clip-rule="nonzero"/></clipPath><clipPath id="34ac9d40e9"><path d="M 914.824219 163.667969 C 907.917969 163.667969 902.324219 169.261719 902.324219 176.167969 C 902.324219 183.070312 907.917969 188.667969 914.824219 188.667969 C 921.726562 188.667969 927.324219 183.070312 927.324219 176.167969 C 927.324219 169.261719 921.726562 163.667969 914.824219 163.667969 Z M 914.824219 163.667969 " clip-rule="nonzero"/></clipPath><clipPath id="1ba72f7e4b"><path d="M 0.324219 0.667969 L 25.324219 0.667969 L 25.324219 25.667969 L 0.324219 25.667969 Z M 0.324219 0.667969 " clip-rule="nonzero"/></clipPath><clipPath id="949a16951a"><path d="M 12.824219 0.667969 C 5.917969 0.667969 0.324219 6.261719 0.324219 13.167969 C 0.324219 20.070312 5.917969 25.667969 12.824219 25.667969 C 19.726562 25.667969 25.324219 20.070312 25.324219 13.167969 C 25.324219 6.261719 19.726562 0.667969 12.824219 0.667969 Z M 12.824219 0.667969 " clip-rule="nonzero"/></clipPath><clipPath id="85aad22fdc"><rect x="0" width="26" y="0" height="26"/></clipPath><clipPath id="56b3eae6ee"><path d="M 365.195312 467.253906 L 390.199219 467.253906 L 390.199219 492.257812 L 365.195312 492.257812 Z M 365.195312 467.253906 " clip-rule="nonzero"/></clipPath><clipPath id="71d7176bf8"><path d="M 377.695312 467.253906 C 370.792969 467.253906 365.195312 472.851562 365.195312 479.757812 C 365.195312 486.660156 370.792969 492.257812 377.695312 492.257812 C 384.601562 492.257812 390.199219 486.660156 390.199219 479.757812 C 390.199219 472.851562 384.601562 467.253906 377.695312 467.253906 Z M 377.695312 467.253906 " clip-rule="nonzero"/></clipPath><clipPath id="e1c2e0b4f0"><path d="M 0.195312 0.253906 L 25.199219 0.253906 L 25.199219 25.257812 L 0.195312 25.257812 Z M 0.195312 0.253906 " clip-rule="nonzero"/></clipPath><clipPath id="fae8385037"><path d="M 12.695312 0.253906 C 5.792969 0.253906 0.195312 5.851562 0.195312 12.757812 C 0.195312 19.660156 5.792969 25.257812 12.695312 25.257812 C 19.601562 25.257812 25.199219 19.660156 25.199219 12.757812 C 25.199219 5.851562 19.601562 0.253906 12.695312 0.253906 Z M 12.695312 0.253906 " clip-rule="nonzero"/></clipPath><clipPath id="635a16c528"><rect x="0" width="26" y="0" height="26"/></clipPath><clipPath id="8c7838bbfc"><path d="M 556.191406 553.417969 L 581.195312 553.417969 L 581.195312 578.421875 L 556.191406 578.421875 Z M 556.191406 553.417969 " clip-rule="nonzero"/></clipPath><clipPath id="dc603abd55"><path d="M 568.691406 553.417969 C 561.789062 553.417969 556.191406 559.015625 556.191406 565.917969 C 556.191406 572.824219 561.789062 578.421875 568.691406 578.421875 C 575.597656 578.421875 581.195312 572.824219 581.195312 565.917969 C 581.195312 559.015625 575.597656 553.417969 568.691406 553.417969 Z M 568.691406 553.417969 " clip-rule="nonzero"/></clipPath><clipPath id="588155c838"><path d="M 0.191406 0.417969 L 25.195312 0.417969 L 25.195312 25.421875 L 0.191406 25.421875 Z M 0.191406 0.417969 " clip-rule="nonzero"/></clipPath><clipPath id="cce578d72c"><path d="M 12.691406 0.417969 C 5.789062 0.417969 0.191406 6.015625 0.191406 12.917969 C 0.191406 19.824219 5.789062 25.421875 12.691406 25.421875 C 19.597656 25.421875 25.195312 19.824219 25.195312 12.917969 C 25.195312 6.015625 19.597656 0.417969 12.691406 0.417969 Z M 12.691406 0.417969 " clip-rule="nonzero"/></clipPath><clipPath id="12d207fd60"><rect x="0" width="26" y="0" height="26"/></clipPath><clipPath id="a016f0ed44"><path d="M 732.5 448.511719 L 757.503906 448.511719 L 757.503906 473.511719 L 732.5 473.511719 Z M 732.5 448.511719 " clip-rule="nonzero"/></clipPath><clipPath id="10847a2f17"><path d="M 745.003906 448.511719 C 738.097656 448.511719 732.5 454.105469 732.5 461.011719 C 732.5 467.917969 738.097656 473.511719 745.003906 473.511719 C 751.90625 473.511719 757.503906 467.917969 757.503906 461.011719 C 757.503906 454.105469 751.90625 448.511719 745.003906 448.511719 Z M 745.003906 448.511719 " clip-rule="nonzero"/></clipPath><clipPath id="ec86207251"><path d="M 0.5 0.511719 L 25.503906 0.511719 L 25.503906 25.511719 L 0.5 25.511719 Z M 0.5 0.511719 " clip-rule="nonzero"/></clipPath><clipPath id="d85551600f"><path d="M 13.003906 0.511719 C 6.097656 0.511719 0.5 6.105469 0.5 13.011719 C 0.5 19.917969 6.097656 25.511719 13.003906 25.511719 C 19.90625 25.511719 25.503906 19.917969 25.503906 13.011719 C 25.503906 6.105469 19.90625 0.511719 13.003906 0.511719 Z M 13.003906 0.511719 " clip-rule="nonzero"/></clipPath><clipPath id="634cc1af14"><rect x="0" width="26" y="0" height="26"/></clipPath><clipPath id="8722e6d909"><path d="M 871.308594 504.761719 L 896.3125 504.761719 L 896.3125 529.761719 L 871.308594 529.761719 Z M 871.308594 504.761719 " clip-rule="nonzero"/></clipPath><clipPath id="dc9d7abf6f"><path d="M 883.808594 504.761719 C 876.90625 504.761719 871.308594 510.355469 871.308594 517.261719 C 871.308594 524.167969 876.90625 529.761719 883.808594 529.761719 C 890.714844 529.761719 896.3125 524.167969 896.3125 517.261719 C 896.3125 510.355469 890.714844 504.761719 883.808594 504.761719 Z M 883.808594 504.761719 " clip-rule="nonzero"/></clipPath><clipPath id="f51a7ca245"><path d="M 0.308594 0.761719 L 25.3125 0.761719 L 25.3125 25.761719 L 0.308594 25.761719 Z M 0.308594 0.761719 " clip-rule="nonzero"/></clipPath><clipPath id="cbb7250b31"><path d="M 12.808594 0.761719 C 5.90625 0.761719 0.308594 6.355469 0.308594 13.261719 C 0.308594 20.167969 5.90625 25.761719 12.808594 25.761719 C 19.714844 25.761719 25.3125 20.167969 25.3125 13.261719 C 25.3125 6.355469 19.714844 0.761719 12.808594 0.761719 Z M 12.808594 0.761719 " clip-rule="nonzero"/></clipPath><clipPath id="284b31f4d4"><rect x="0" width="26" y="0" height="26"/></clipPath><clipPath id="417e0967c7"><path d="M 1029.296875 504.761719 L 1054.300781 504.761719 L 1054.300781 529.761719 L 1029.296875 529.761719 Z M 1029.296875 504.761719 " clip-rule="nonzero"/></clipPath><clipPath id="8e0aa8f6ca"><path d="M 1041.796875 504.761719 C 1034.894531 504.761719 1029.296875 510.355469 1029.296875 517.261719 C 1029.296875 524.167969 1034.894531 529.761719 1041.796875 529.761719 C 1048.703125 529.761719 1054.300781 524.167969 1054.300781 517.261719 C 1054.300781 510.355469 1048.703125 504.761719 1041.796875 504.761719 Z M 1041.796875 504.761719 " clip-rule="nonzero"/></clipPath><clipPath id="90f2966b4d"><path d="M 0.296875 0.761719 L 25.300781 0.761719 L 25.300781 25.761719 L 0.296875 25.761719 Z M 0.296875 0.761719 " clip-rule="nonzero"/></clipPath><clipPath id="8e220926fc"><path d="M 12.796875 0.761719 C 5.894531 0.761719 0.296875 6.355469 0.296875 13.261719 C 0.296875 20.167969 5.894531 25.761719 12.796875 25.761719 C 19.703125 25.761719 25.300781 20.167969 25.300781 13.261719 C 25.300781 6.355469 19.703125 0.761719 12.796875 0.761719 Z M 12.796875 0.761719 " clip-rule="nonzero"/></clipPath><clipPath id="d827f67aa3"><rect x="0" width="26" y="0" height="26"/></clipPath><clipPath id="796619a569"><path d="M 694.996094 529.761719 L 720 529.761719 L 720 554.765625 L 694.996094 554.765625 Z M 694.996094 529.761719 " clip-rule="nonzero"/></clipPath><clipPath id="da746fe9e3"><path d="M 707.5 529.761719 C 700.59375 529.761719 694.996094 535.359375 694.996094 542.265625 C 694.996094 549.167969 700.59375 554.765625 707.5 554.765625 C 714.402344 554.765625 720 549.167969 720 542.265625 C 720 535.359375 714.402344 529.761719 707.5 529.761719 Z M 707.5 529.761719 " clip-rule="nonzero"/></clipPath><clipPath id="0ee44a6c01"><path d="M 0.996094 0.761719 L 26 0.761719 L 26 25.765625 L 0.996094 25.765625 Z M 0.996094 0.761719 " clip-rule="nonzero"/></clipPath><clipPath id="375316bf0b"><path d="M 13.5 0.761719 C 6.59375 0.761719 0.996094 6.359375 0.996094 13.265625 C 0.996094 20.167969 6.59375 25.765625 13.5 25.765625 C 20.402344 25.765625 26 20.167969 26 13.265625 C 26 6.359375 20.402344 0.761719 13.5 0.761719 Z M 13.5 0.761719 " clip-rule="nonzero"/></clipPath><clipPath id="3699dde529"><rect x="0" width="26" y="0" height="26"/></clipPath><clipPath id="7c5292f0ad"><path d="M 772.511719 629.183594 L 797.511719 629.183594 L 797.511719 654.1875 L 772.511719 654.1875 Z M 772.511719 629.183594 " clip-rule="nonzero"/></clipPath><clipPath id="f99e51c37c"><path d="M 785.011719 629.183594 C 778.109375 629.183594 772.511719 634.78125 772.511719 641.6875 C 772.511719 648.589844 778.109375 654.1875 785.011719 654.1875 C 791.917969 654.1875 797.511719 648.589844 797.511719 641.6875 C 797.511719 634.78125 791.917969 629.183594 785.011719 629.183594 Z M 785.011719 629.183594 " clip-rule="nonzero"/></clipPath><clipPath id="601bcb2654"><path d="M 0.511719 0.183594 L 25.511719 0.183594 L 25.511719 25.1875 L 0.511719 25.1875 Z M 0.511719 0.183594 " clip-rule="nonzero"/></clipPath><clipPath id="12ec182fb8"><path d="M 13.011719 0.183594 C 6.109375 0.183594 0.511719 5.78125 0.511719 12.6875 C 0.511719 19.589844 6.109375 25.1875 13.011719 25.1875 C 19.917969 25.1875 25.511719 19.589844 25.511719 12.6875 C 25.511719 5.78125 19.917969 0.183594 13.011719 0.183594 Z M 13.011719 0.183594 " clip-rule="nonzero"/></clipPath><clipPath id="2e31aba96a"><rect x="0" width="26" y="0" height="26"/></clipPath><clipPath id="dd35af39b8"><path d="M 939.828125 565.917969 L 964.832031 565.917969 L 964.832031 590.921875 L 939.828125 590.921875 Z M 939.828125 565.917969 " clip-rule="nonzero"/></clipPath><clipPath id="d92cb72062"><path d="M 952.328125 565.917969 C 945.425781 565.917969 939.828125 571.515625 939.828125 578.421875 C 939.828125 585.324219 945.425781 590.921875 952.328125 590.921875 C 959.234375 590.921875 964.832031 585.324219 964.832031 578.421875 C 964.832031 571.515625 959.234375 565.917969 952.328125 565.917969 Z M 952.328125 565.917969 " clip-rule="nonzero"/></clipPath><clipPath id="307d08cb64"><path d="M 0.828125 0.917969 L 25.832031 0.917969 L 25.832031 25.921875 L 0.828125 25.921875 Z M 0.828125 0.917969 " clip-rule="nonzero"/></clipPath><clipPath id="2ab7bca917"><path d="M 13.328125 0.917969 C 6.425781 0.917969 0.828125 6.515625 0.828125 13.421875 C 0.828125 20.324219 6.425781 25.921875 13.328125 25.921875 C 20.234375 25.921875 25.832031 20.324219 25.832031 13.421875 C 25.832031 6.515625 20.234375 0.917969 13.328125 0.917969 Z M 13.328125 0.917969 " clip-rule="nonzero"/></clipPath><clipPath id="fbf04bf886"><rect x="0" width="26" y="0" height="26"/></clipPath><clipPath id="dd34a8f4c2"><path d="M 430.148438 529.761719 L 455.152344 529.761719 L 455.152344 554.765625 L 430.148438 554.765625 Z M 430.148438 529.761719 " clip-rule="nonzero"/></clipPath><clipPath id="9a8ca857b6"><path d="M 442.652344 529.761719 C 435.746094 529.761719 430.148438 535.359375 430.148438 542.265625 C 430.148438 549.167969 435.746094 554.765625 442.652344 554.765625 C 449.554688 554.765625 455.152344 549.167969 455.152344 542.265625 C 455.152344 535.359375 449.554688 529.761719 442.652344 529.761719 Z M 442.652344 529.761719 " clip-rule="nonzero"/></clipPath><clipPath id="d7a6dd15d0"><path d="M 0.148438 0.761719 L 25.152344 0.761719 L 25.152344 25.765625 L 0.148438 25.765625 Z M 0.148438 0.761719 " clip-rule="nonzero"/></clipPath><clipPath id="bd1feec0c8"><path d="M 12.652344 0.761719 C 5.746094 0.761719 0.148438 6.359375 0.148438 13.265625 C 0.148438 20.167969 5.746094 25.765625 12.652344 25.765625 C 19.554688 25.765625 25.152344 20.167969 25.152344 13.265625 C 25.152344 6.359375 19.554688 0.761719 12.652344 0.761719 Z M 12.652344 0.761719 " clip-rule="nonzero"/></clipPath><clipPath id="39dc7864a4"><rect x="0" width="26" y="0" height="26"/></clipPath><clipPath id="d0c873cd41"><path d="M 491.945312 504.761719 L 516.949219 504.761719 L 516.949219 529.761719 L 491.945312 529.761719 Z M 491.945312 504.761719 " clip-rule="nonzero"/></clipPath><clipPath id="bee476ef12"><path d="M 504.449219 504.761719 C 497.542969 504.761719 491.945312 510.355469 491.945312 517.261719 C 491.945312 524.167969 497.542969 529.761719 504.449219 529.761719 C 511.351562 529.761719 516.949219 524.167969 516.949219 517.261719 C 516.949219 510.355469 511.351562 504.761719 504.449219 504.761719 Z M 504.449219 504.761719 " clip-rule="nonzero"/></clipPath><clipPath id="cff4a52aba"><path d="M 0.945312 0.761719 L 25.949219 0.761719 L 25.949219 25.761719 L 0.945312 25.761719 Z M 0.945312 0.761719 " clip-rule="nonzero"/></clipPath><clipPath id="a45b31d5de"><path d="M 13.449219 0.761719 C 6.542969 0.761719 0.945312 6.355469 0.945312 13.261719 C 0.945312 20.167969 6.542969 25.761719 13.449219 25.761719 C 20.351562 25.761719 25.949219 20.167969 25.949219 13.261719 C 25.949219 6.355469 20.351562 0.761719 13.449219 0.761719 Z M 13.449219 0.761719 " clip-rule="nonzero"/></clipPath><clipPath id="a6534c7659"><rect x="0" width="26" y="0" height="26"/></clipPath><clipPath id="52ae35d6b2"><path d="M 694.996094 234.148438 L 720 234.148438 L 720 259.152344 L 694.996094 259.152344 Z M 694.996094 234.148438 " clip-rule="nonzero"/></clipPath><clipPath id="0d1c6d94fd"><path d="M 707.5 234.148438 C 700.59375 234.148438 694.996094 239.746094 694.996094 246.648438 C 694.996094 253.554688 700.59375 259.152344 707.5 259.152344 C 714.402344 259.152344 720 253.554688 720 246.648438 C 720 239.746094 714.402344 234.148438 707.5 234.148438 Z M 707.5 234.148438 " clip-rule="nonzero"/></clipPath><clipPath id="44b176505f"><path d="M 0.996094 0.148438 L 26 0.148438 L 26 25.152344 L 0.996094 25.152344 Z M 0.996094 0.148438 " clip-rule="nonzero"/></clipPath><clipPath id="3cfd901581"><path d="M 13.5 0.148438 C 6.59375 0.148438 0.996094 5.746094 0.996094 12.648438 C 0.996094 19.554688 6.59375 25.152344 13.5 25.152344 C 20.402344 25.152344 26 19.554688 26 12.648438 C 26 5.746094 20.402344 0.148438 13.5 0.148438 Z M 13.5 0.148438 " clip-rule="nonzero"/></clipPath><clipPath id="cf08daf65b"><rect x="0" width="26" y="0" height="26"/></clipPath><clipPath id="bb7f25087b"><path d="M 846.304688 234.148438 L 871.308594 234.148438 L 871.308594 259.152344 L 846.304688 259.152344 Z M 846.304688 234.148438 " clip-rule="nonzero"/></clipPath><clipPath id="5564d954fc"><path d="M 858.804688 234.148438 C 851.902344 234.148438 846.304688 239.746094 846.304688 246.648438 C 846.304688 253.554688 851.902344 259.152344 858.804688 259.152344 C 865.710938 259.152344 871.308594 253.554688 871.308594 246.648438 C 871.308594 239.746094 865.710938 234.148438 858.804688 234.148438 Z M 858.804688 234.148438 " clip-rule="nonzero"/></clipPath><clipPath id="f1e13bff5a"><path d="M 0.304688 0.148438 L 25.308594 0.148438 L 25.308594 25.152344 L 0.304688 25.152344 Z M 0.304688 0.148438 " clip-rule="nonzero"/></clipPath><clipPath id="cd411a49b6"><path d="M 12.804688 0.148438 C 5.902344 0.148438 0.304688 5.746094 0.304688 12.648438 C 0.304688 19.554688 5.902344 25.152344 12.804688 25.152344 C 19.710938 25.152344 25.308594 19.554688 25.308594 12.648438 C 25.308594 5.746094 19.710938 0.148438 12.804688 0.148438 Z M 12.804688 0.148438 " clip-rule="nonzero"/></clipPath><clipPath id="1303fa8873"><rect x="0" width="26" y="0" height="26"/></clipPath><clipPath id="108a4fb021"><path d="M 518.6875 616.683594 L 543.6875 616.683594 L 543.6875 641.6875 L 518.6875 641.6875 Z M 518.6875 616.683594 " clip-rule="nonzero"/></clipPath><clipPath id="99b48c6649"><path d="M 531.1875 616.683594 C 524.28125 616.683594 518.6875 622.28125 518.6875 629.183594 C 518.6875 636.089844 524.28125 641.6875 531.1875 641.6875 C 538.09375 641.6875 543.6875 636.089844 543.6875 629.183594 C 543.6875 622.28125 538.09375 616.683594 531.1875 616.683594 Z M 531.1875 616.683594 " clip-rule="nonzero"/></clipPath><clipPath id="aebb510173"><path d="M 0.6875 0.683594 L 25.6875 0.683594 L 25.6875 25.6875 L 0.6875 25.6875 Z M 0.6875 0.683594 " clip-rule="nonzero"/></clipPath><clipPath id="9e8cf12c4c"><path d="M 13.1875 0.683594 C 6.28125 0.683594 0.6875 6.28125 0.6875 13.183594 C 0.6875 20.089844 6.28125 25.6875 13.1875 25.6875 C 20.09375 25.6875 25.6875 20.089844 25.6875 13.183594 C 25.6875 6.28125 20.09375 0.683594 13.1875 0.683594 Z M 13.1875 0.683594 " clip-rule="nonzero"/></clipPath><clipPath id="b03b6f5b33"><rect x="0" width="26" y="0" height="26"/></clipPath><clipPath id="3c0fb8bafe"><path d="M 772.511719 392.5 L 797.511719 392.5 L 797.511719 417.5 L 772.511719 417.5 Z M 772.511719 392.5 " clip-rule="nonzero"/></clipPath><clipPath id="529dacbb59"><path d="M 785.011719 392.5 C 778.109375 392.5 772.511719 398.09375 772.511719 405 C 772.511719 411.90625 778.109375 417.5 785.011719 417.5 C 791.917969 417.5 797.511719 411.90625 797.511719 405 C 797.511719 398.09375 791.917969 392.5 785.011719 392.5 Z M 785.011719 392.5 " clip-rule="nonzero"/></clipPath><clipPath id="c92d2978da"><path d="M 0.511719 0.5 L 25.511719 0.5 L 25.511719 25.5 L 0.511719 25.5 Z M 0.511719 0.5 " clip-rule="nonzero"/></clipPath><clipPath id="f137fd030d"><path d="M 13.011719 0.5 C 6.109375 0.5 0.511719 6.09375 0.511719 13 C 0.511719 19.90625 6.109375 25.5 13.011719 25.5 C 19.917969 25.5 25.511719 19.90625 25.511719 13 C 25.511719 6.09375 19.917969 0.5 13.011719 0.5 Z M 13.011719 0.5 " clip-rule="nonzero"/></clipPath><clipPath id="cf41655ba7"><rect x="0" width="26" y="0" height="26"/></clipPath><clipPath id="89d1da0f3b"><path d="M 889.820312 324.066406 L 914.824219 324.066406 L 914.824219 349.070312 L 889.820312 349.070312 Z M 889.820312 324.066406 " clip-rule="nonzero"/></clipPath><clipPath id="7914f8ebbf"><path d="M 902.320312 324.066406 C 895.417969 324.066406 889.820312 329.664062 889.820312 336.566406 C 889.820312 343.472656 895.417969 349.070312 902.320312 349.070312 C 909.226562 349.070312 914.824219 343.472656 914.824219 336.566406 C 914.824219 329.664062 909.226562 324.066406 902.320312 324.066406 Z M 902.320312 324.066406 " clip-rule="nonzero"/></clipPath><clipPath id="66f29acc8a"><path d="M 0.820312 0.0664062 L 25.824219 0.0664062 L 25.824219 25.070312 L 0.820312 25.070312 Z M 0.820312 0.0664062 " clip-rule="nonzero"/></clipPath><clipPath id="1e864149b6"><path d="M 13.320312 0.0664062 C 6.417969 0.0664062 0.820312 5.664062 0.820312 12.566406 C 0.820312 19.472656 6.417969 25.070312 13.320312 25.070312 C 20.226562 25.070312 25.824219 19.472656 25.824219 12.566406 C 25.824219 5.664062 20.226562 0.0664062 13.320312 0.0664062 Z M 13.320312 0.0664062 " clip-rule="nonzero"/></clipPath><clipPath id="d66b4a74c9"><rect x="0" width="26" y="0" height="26"/></clipPath><clipPath id="54b54e4d8d"><path d="M 952.328125 479.757812 L 977.332031 479.757812 L 977.332031 504.761719 L 952.328125 504.761719 Z M 952.328125 479.757812 " clip-rule="nonzero"/></clipPath><clipPath id="27df8a976c"><path d="M 964.832031 479.757812 C 957.925781 479.757812 952.328125 485.355469 952.328125 492.257812 C 952.328125 499.164062 957.925781 504.761719 964.832031 504.761719 C 971.734375 504.761719 977.332031 499.164062 977.332031 492.257812 C 977.332031 485.355469 971.734375 479.757812 964.832031 479.757812 Z M 964.832031 479.757812 " clip-rule="nonzero"/></clipPath><clipPath id="e8d7f02632"><path d="M 0.328125 0.757812 L 25.332031 0.757812 L 25.332031 25.761719 L 0.328125 25.761719 Z M 0.328125 0.757812 " clip-rule="nonzero"/></clipPath><clipPath id="cfa8a2c021"><path d="M 12.832031 0.757812 C 5.925781 0.757812 0.328125 6.355469 0.328125 13.257812 C 0.328125 20.164062 5.925781 25.761719 12.832031 25.761719 C 19.734375 25.761719 25.332031 20.164062 25.332031 13.257812 C 25.332031 6.355469 19.734375 0.757812 12.832031 0.757812 Z M 12.832031 0.757812 " clip-rule="nonzero"/></clipPath><clipPath id="4ae63e06a6"><rect x="0" width="26" y="0" height="26"/></clipPath><clipPath id="e5f042eb27"><path d="M 1029.296875 417.5 L 1054.300781 417.5 L 1054.300781 442.503906 L 1029.296875 442.503906 Z M 1029.296875 417.5 " clip-rule="nonzero"/></clipPath><clipPath id="1c02dff1a1"><path d="M 1041.796875 417.5 C 1034.894531 417.5 1029.296875 423.097656 1029.296875 430.003906 C 1029.296875 436.90625 1034.894531 442.503906 1041.796875 442.503906 C 1048.703125 442.503906 1054.300781 436.90625 1054.300781 430.003906 C 1054.300781 423.097656 1048.703125 417.5 1041.796875 417.5 Z M 1041.796875 417.5 " clip-rule="nonzero"/></clipPath><clipPath id="54be505853"><path d="M 0.296875 0.5 L 25.300781 0.5 L 25.300781 25.503906 L 0.296875 25.503906 Z M 0.296875 0.5 " clip-rule="nonzero"/></clipPath><clipPath id="5077389f1a"><path d="M 12.796875 0.5 C 5.894531 0.5 0.296875 6.097656 0.296875 13.003906 C 0.296875 19.90625 5.894531 25.503906 12.796875 25.503906 C 19.703125 25.503906 25.300781 19.90625 25.300781 13.003906 C 25.300781 6.097656 19.703125 0.5 12.796875 0.5 Z M 12.796875 0.5 " clip-rule="nonzero"/></clipPath><clipPath id="69d76a6dc5"><rect x="0" width="26" y="0" height="26"/></clipPath><clipPath id="dc14d55b70"><path d="M 986.363281 324.066406 L 1011.367188 324.066406 L 1011.367188 349.070312 L 986.363281 349.070312 Z M 986.363281 324.066406 " clip-rule="nonzero"/></clipPath><clipPath id="57d55e1081"><path d="M 998.863281 324.066406 C 991.960938 324.066406 986.363281 329.664062 986.363281 336.566406 C 986.363281 343.472656 991.960938 349.070312 998.863281 349.070312 C 1005.769531 349.070312 1011.367188 343.472656 1011.367188 336.566406 C 1011.367188 329.664062 1005.769531 324.066406 998.863281 324.066406 Z M 998.863281 324.066406 " clip-rule="nonzero"/></clipPath><clipPath id="520e44be0d"><path d="M 0.363281 0.0664062 L 25.367188 0.0664062 L 25.367188 25.070312 L 0.363281 25.070312 Z M 0.363281 0.0664062 " clip-rule="nonzero"/></clipPath><clipPath id="e0ea52d822"><path d="M 12.863281 0.0664062 C 5.960938 0.0664062 0.363281 5.664062 0.363281 12.566406 C 0.363281 19.472656 5.960938 25.070312 12.863281 25.070312 C 19.769531 25.070312 25.367188 19.472656 25.367188 12.566406 C 25.367188 5.664062 19.769531 0.0664062 12.863281 0.0664062 Z M 12.863281 0.0664062 " clip-rule="nonzero"/></clipPath><clipPath id="b0a1ec8d12"><rect x="0" width="26" y="0" height="26"/></clipPath><clipPath id="af838b687f"><path d="M 474.121094 280.054688 L 499.125 280.054688 L 499.125 305.058594 L 474.121094 305.058594 Z M 474.121094 280.054688 " clip-rule="nonzero"/></clipPath><clipPath id="edd713d372"><path d="M 486.621094 280.054688 C 479.71875 280.054688 474.121094 285.652344 474.121094 292.554688 C 474.121094 299.460938 479.71875 305.058594 486.621094 305.058594 C 493.527344 305.058594 499.125 299.460938 499.125 292.554688 C 499.125 285.652344 493.527344 280.054688 486.621094 280.054688 Z M 486.621094 280.054688 " clip-rule="nonzero"/></clipPath><clipPath id="88714a67af"><path d="M 0.121094 0.0546875 L 25.125 0.0546875 L 25.125 25.058594 L 0.121094 25.058594 Z M 0.121094 0.0546875 " clip-rule="nonzero"/></clipPath><clipPath id="34f09a92fc"><path d="M 12.621094 0.0546875 C 5.71875 0.0546875 0.121094 5.652344 0.121094 12.554688 C 0.121094 19.460938 5.71875 25.058594 12.621094 25.058594 C 19.527344 25.058594 25.125 19.460938 25.125 12.554688 C 25.125 5.652344 19.527344 0.0546875 12.621094 0.0546875 Z M 12.621094 0.0546875 " clip-rule="nonzero"/></clipPath><clipPath id="aa318cb962"><rect x="0" width="26" y="0" height="26"/></clipPath><clipPath id="6a861d9a56"><path d="M 338.722656 379.996094 L 363.726562 379.996094 L 363.726562 405 L 338.722656 405 Z M 338.722656 379.996094 " clip-rule="nonzero"/></clipPath><clipPath id="0212f89e2a"><path d="M 351.226562 379.996094 C 344.320312 379.996094 338.722656 385.59375 338.722656 392.5 C 338.722656 399.402344 344.320312 405 351.226562 405 C 358.128906 405 363.726562 399.402344 363.726562 392.5 C 363.726562 385.59375 358.128906 379.996094 351.226562 379.996094 Z M 351.226562 379.996094 " clip-rule="nonzero"/></clipPath><clipPath id="4c74d0b78f"><path d="M 0.722656 0.996094 L 25.726562 0.996094 L 25.726562 26 L 0.722656 26 Z M 0.722656 0.996094 " clip-rule="nonzero"/></clipPath><clipPath id="d7f9457b54"><path d="M 13.226562 0.996094 C 6.320312 0.996094 0.722656 6.59375 0.722656 13.5 C 0.722656 20.402344 6.320312 26 13.226562 26 C 20.128906 26 25.726562 20.402344 25.726562 13.5 C 25.726562 6.59375 20.128906 0.996094 13.226562 0.996094 Z M 13.226562 0.996094 " clip-rule="nonzero"/></clipPath><clipPath id="9e3b8e0714"><rect x="0" width="26" y="0" height="26"/></clipPath></defs><g mask="url(#e85b2ad226)"><g transform="matrix(1, 0, 0, 1, 581, 127)"><g clip-path="url(#6aeba7874f)"><g clip-path="url(#3ff37da06c)"><g clip-path="url(#ada73c478d)"><g transform="matrix(1, 0, 0, 1, 0, 0.000000000000042633)"><g clip-path="url(#256fa0406e)"><g clip-path="url(#2e89e20ed3)"><g clip-path="url(#388289ed3d)"><path fill="#ff914d" d="M 0.195312 0.386719 L 555.417969 0.386719 L 555.417969 555.613281 L 0.195312 555.613281 Z M 0.195312 0.386719 " fill-opacity="1" fill-rule="nonzero"/></g></g></g></g></g></g></g></g></g><g mask="url(#50ca7746da)"><g transform="matrix(1, 0, 0, 1, 303, 127)"><g clip-path="url(#1d0ed24b2d)"><g clip-path="url(#c01581b377)"><g clip-path="url(#9044403776)"><g transform="matrix(1, 0, 0, 1, 0, 0.000000000000042633)"><g clip-path="url(#79b29a37b4)"><g clip-path="url(#739881fff8)"><g clip-path="url(#7e7c435fe3)"><path fill="#38b6ff" d="M 0.582031 0.386719 L 555.804688 0.386719 L 555.804688 555.613281 L 0.582031 555.613281 Z M 0.582031 0.386719 " fill-opacity="1" fill-rule="nonzero"/></g></g></g></g></g></g></g></g></g><g clip-path="url(#e9aa09d61c)"><g clip-path="url(#4459806b9f)"><g transform="matrix(1, 0, 0, 1, 442, 221)"><g clip-path="url(#bd269be67f)"><g clip-path="url(#3674d6a3f1)"><g clip-path="url(#2b03b8f926)"><path fill="#fff3c2" d="M 0.652344 0.644531 L 25.65625 0.644531 L 25.65625 25.648438 L 0.652344 25.648438 Z M 0.652344 0.644531 " fill-opacity="1" fill-rule="nonzero"/></g></g></g></g></g></g><g clip-path="url(#d18749cd85)"><g clip-path="url(#a45058d078)"><g transform="matrix(1, 0, 0, 1, 377, 278)"><g clip-path="url(#263a885471)"><g clip-path="url(#6323a50b21)"><g clip-path="url(#a780ce94aa)"><path fill="#fff3c2" d="M 0.695312 0.0976562 L 25.699219 0.0976562 L 25.699219 25.101562 L 0.695312 25.101562 Z M 0.695312 0.0976562 " fill-opacity="1" fill-rule="nonzero"/></g></g></g></g></g></g><g clip-path="url(#950ee1d54f)"><g clip-path="url(#b97bfc90c6)"><g transform="matrix(1, 0, 0, 1, 467, 342)"><g clip-path="url(#412f1198b1)"><g clip-path="url(#823db95480)"><g clip-path="url(#f2e68d29e7)"><path fill="#fff3c2" d="M 0.65625 0.5625 L 25.660156 0.5625 L 25.660156 25.566406 L 0.65625 25.566406 Z M 0.65625 0.5625 " fill-opacity="1" fill-rule="nonzero"/></g></g></g></g></g></g><g clip-path="url(#b171d3ed5b)"><g clip-path="url(#296b59fb42)"><g transform="matrix(1, 0, 0, 1, 543, 253)"><g clip-path="url(#417290d1d5)"><g clip-path="url(#3b5724564a)"><g clip-path="url(#058899a8b8)"><path fill="#fff3c2" d="M 0.6875 0.09375 L 25.691406 0.09375 L 25.691406 25.097656 L 0.6875 25.097656 Z M 0.6875 0.09375 " fill-opacity="1" fill-rule="nonzero"/></g></g></g></g></g></g><g clip-path="url(#b0f6f805b5)"><g clip-path="url(#87a0f4fb9f)"><g transform="matrix(1, 0, 0, 1, 417, 398)"><g clip-path="url(#d78192a4f9)"><g clip-path="url(#329d5476da)"><g clip-path="url(#b8ddb57795)"><path fill="#fff3c2" d="M 0.648438 0.503906 L 25.652344 0.503906 L 25.652344 25.507812 L 0.648438 25.507812 Z M 0.648438 0.503906 " fill-opacity="1" fill-rule="nonzero"/></g></g></g></g></g></g><g clip-path="url(#92d9d29924)"><g clip-path="url(#cae7252a18)"><g transform="matrix(1, 0, 0, 1, 543, 188)"><g clip-path="url(#03d13bcd9c)"><g clip-path="url(#6df5ecbc5c)"><g clip-path="url(#f53cd87f7b)"><path fill="#fff3c2" d="M 0.6875 0.667969 L 25.691406 0.667969 L 25.691406 25.671875 L 0.6875 25.671875 Z M 0.6875 0.667969 " fill-opacity="1" fill-rule="nonzero"/></g></g></g></g></g></g><g clip-path="url(#68705b6205)"><g clip-path="url(#83289f039c)"><g transform="matrix(1, 0, 0, 1, 499, 423)"><g clip-path="url(#28eba968a4)"><g clip-path="url(#1ff8fb0911)"><g clip-path="url(#8e7e160358)"><path fill="#fff3c2" d="M 0.125 0.507812 L 25.125 0.507812 L 25.125 25.511719 L 0.125 25.511719 Z M 0.125 0.507812 " fill-opacity="1" fill-rule="nonzero"/></g></g></g></g></g></g><g clip-path="url(#395f7a6512)"><g clip-path="url(#4c54a4ed7a)"><g transform="matrix(1, 0, 0, 1, 707, 336)"><g clip-path="url(#db202e74c8)"><g clip-path="url(#09b70d7fdc)"><g clip-path="url(#b59ec55cc4)"><path fill="#fff3c2" d="M 0.5 0.566406 L 25.5 0.566406 L 25.5 25.570312 L 0.5 25.570312 Z M 0.5 0.566406 " fill-opacity="1" fill-rule="nonzero"/></g></g></g></g></g></g><g clip-path="url(#c9715dbb17)"><g clip-path="url(#e3057e97ab)"><g transform="matrix(1, 0, 0, 1, 964, 234)"><g clip-path="url(#fbfe4d629c)"><g clip-path="url(#4a27752ad5)"><g clip-path="url(#4aecdb65ef)"><path fill="#fff3c2" d="M 0.832031 0.148438 L 25.832031 0.148438 L 25.832031 25.152344 L 0.832031 25.152344 Z M 0.832031 0.148438 " fill-opacity="1" fill-rule="nonzero"/></g></g></g></g></g></g><g clip-path="url(#d2144ac04e)"><g clip-path="url(#ae07efd125)"><g transform="matrix(1, 0, 0, 1, 757, 278)"><g clip-path="url(#80c85f0605)"><g clip-path="url(#974827ff08)"><g clip-path="url(#14b897a432)"><path fill="#fff3c2" d="M 0.503906 0.0976562 L 25.507812 0.0976562 L 25.507812 25.101562 L 0.503906 25.101562 Z M 0.503906 0.0976562 " fill-opacity="1" fill-rule="nonzero"/></g></g></g></g></g></g><g clip-path="url(#6585799a03)"><g clip-path="url(#207ec4259c)"><g transform="matrix(1, 0, 0, 1, 914, 379)"><g clip-path="url(#2350993869)"><g clip-path="url(#ba0c7f649c)"><g clip-path="url(#c893126947)"><path fill="#fff3c2" d="M 0.824219 0.996094 L 25.828125 0.996094 L 25.828125 26 L 0.824219 26 Z M 0.824219 0.996094 " fill-opacity="1" fill-rule="nonzero"/></g></g></g></g></g></g><g clip-path="url(#97666e8382)"><g clip-path="url(#987a2777fa)"><g transform="matrix(1, 0, 0, 1, 821, 196)"><g clip-path="url(#41e5da374b)"><g clip-path="url(#a3bae90cf3)"><g clip-path="url(#687bed91b1)"><path fill="#fff3c2" d="M 0.300781 0.644531 L 25.304688 0.644531 L 25.304688 25.648438 L 0.300781 25.648438 Z M 0.300781 0.644531 " fill-opacity="1" fill-rule="nonzero"/></g></g></g></g></g></g><g clip-path="url(#e34cd557df)"><g clip-path="url(#1b44358256)"><g transform="matrix(1, 0, 0, 1, 635, 392)"><g clip-path="url(#2642ee5985)"><g clip-path="url(#b7785480af)"><g clip-path="url(#5c186ba611)"><path fill="#fff3c2" d="M 0.519531 0.5 L 25.523438 0.5 L 25.523438 25.5 L 0.519531 25.5 Z M 0.519531 0.5 " fill-opacity="1" fill-rule="nonzero"/></g></g></g></g></g></g><g clip-path="url(#a3561e9d40)"><g clip-path="url(#9732171d01)"><g transform="matrix(1, 0, 0, 1, 648, 448)"><g clip-path="url(#2a44083e1e)"><g clip-path="url(#74e3484e51)"><g clip-path="url(#77cecd8391)"><path fill="#fff3c2" d="M 0.0195312 0.511719 L 25.023438 0.511719 L 25.023438 25.511719 L 0.0195312 25.511719 Z M 0.0195312 0.511719 " fill-opacity="1" fill-rule="nonzero"/></g></g></g></g></g></g><g clip-path="url(#6cf2714b88)"><g clip-path="url(#4a7737001a)"><g transform="matrix(1, 0, 0, 1, 833, 616)"><g clip-path="url(#8ac27bcc6d)"><g clip-path="url(#7d741def4e)"><g clip-path="url(#79f6f9f844)"><path fill="#fff3c2" d="M 0.800781 0.683594 L 25.804688 0.683594 L 25.804688 25.6875 L 0.800781 25.6875 Z M 0.800781 0.683594 " fill-opacity="1" fill-rule="nonzero"/></g></g></g></g></g></g><g clip-path="url(#826211ae66)"><g clip-path="url(#75f3958e48)"><g transform="matrix(1, 0, 0, 1, 603, 330)"><g clip-path="url(#fff322c51d)"><g clip-path="url(#e5b90d8f7c)"><g clip-path="url(#22fe82c7bf)"><path fill="#fff3c2" d="M 0.0507812 0.0625 L 25.054688 0.0625 L 25.054688 25.0625 L 0.0507812 25.0625 Z M 0.0507812 0.0625 " fill-opacity="1" fill-rule="nonzero"/></g></g></g></g></g></g><g clip-path="url(#19eff58a25)"><g clip-path="url(#434b31cfbf)"><g transform="matrix(1, 0, 0, 1, 660, 305)"><g clip-path="url(#a888909d20)"><g clip-path="url(#0e027820b6)"><g clip-path="url(#feee70ce68)"><path fill="#fff3c2" d="M 0.523438 0.0585938 L 25.523438 0.0585938 L 25.523438 25.0625 L 0.523438 25.0625 Z M 0.523438 0.0585938 " fill-opacity="1" fill-rule="nonzero"/></g></g></g></g></g></g><g clip-path="url(#52344fa304)"><g clip-path="url(#34ac9d40e9)"><g transform="matrix(1, 0, 0, 1, 902, 163)"><g clip-path="url(#85aad22fdc)"><g clip-path="url(#1ba72f7e4b)"><g clip-path="url(#949a16951a)"><path fill="#fff3c2" d="M 0.320312 0.667969 L 25.324219 0.667969 L 25.324219 25.667969 L 0.320312 25.667969 Z M 0.320312 0.667969 " fill-opacity="1" fill-rule="nonzero"/></g></g></g></g></g></g><g clip-path="url(#56b3eae6ee)"><g clip-path="url(#71d7176bf8)"><g transform="matrix(1, 0, 0, 1, 365, 467)"><g clip-path="url(#635a16c528)"><g clip-path="url(#e1c2e0b4f0)"><g clip-path="url(#fae8385037)"><path fill="#fff3c2" d="M 0.195312 0.253906 L 25.199219 0.253906 L 25.199219 25.257812 L 0.195312 25.257812 Z M 0.195312 0.253906 " fill-opacity="1" fill-rule="nonzero"/></g></g></g></g></g></g><g clip-path="url(#8c7838bbfc)"><g clip-path="url(#dc603abd55)"><g transform="matrix(1, 0, 0, 1, 556, 553)"><g clip-path="url(#12d207fd60)"><g clip-path="url(#588155c838)"><g clip-path="url(#cce578d72c)"><path fill="#fff3c2" d="M 0.191406 0.417969 L 25.195312 0.417969 L 25.195312 25.421875 L 0.191406 25.421875 Z M 0.191406 0.417969 " fill-opacity="1" fill-rule="nonzero"/></g></g></g></g></g></g><g clip-path="url(#a016f0ed44)"><g clip-path="url(#10847a2f17)"><g transform="matrix(1, 0, 0, 1, 732, 448)"><g clip-path="url(#634cc1af14)"><g clip-path="url(#ec86207251)"><g clip-path="url(#d85551600f)"><path fill="#fff3c2" d="M 0.5 0.511719 L 25.503906 0.511719 L 25.503906 25.511719 L 0.5 25.511719 Z M 0.5 0.511719 " fill-opacity="1" fill-rule="nonzero"/></g></g></g></g></g></g><g clip-path="url(#8722e6d909)"><g clip-path="url(#dc9d7abf6f)"><g transform="matrix(1, 0, 0, 1, 871, 504)"><g clip-path="url(#284b31f4d4)"><g clip-path="url(#f51a7ca245)"><g clip-path="url(#cbb7250b31)"><path fill="#fff3c2" d="M 0.308594 0.761719 L 25.3125 0.761719 L 25.3125 25.761719 L 0.308594 25.761719 Z M 0.308594 0.761719 " fill-opacity="1" fill-rule="nonzero"/></g></g></g></g></g></g><g clip-path="url(#417e0967c7)"><g clip-path="url(#8e0aa8f6ca)"><g transform="matrix(1, 0, 0, 1, 1029, 504)"><g clip-path="url(#d827f67aa3)"><g clip-path="url(#90f2966b4d)"><g clip-path="url(#8e220926fc)"><path fill="#fff3c2" d="M 0.296875 0.761719 L 25.300781 0.761719 L 25.300781 25.761719 L 0.296875 25.761719 Z M 0.296875 0.761719 " fill-opacity="1" fill-rule="nonzero"/></g></g></g></g></g></g><g clip-path="url(#796619a569)"><g clip-path="url(#da746fe9e3)"><g transform="matrix(1, 0, 0, 1, 694, 529)"><g clip-path="url(#3699dde529)"><g clip-path="url(#0ee44a6c01)"><g clip-path="url(#375316bf0b)"><path fill="#fff3c2" d="M 0.996094 0.761719 L 26 0.761719 L 26 25.765625 L 0.996094 25.765625 Z M 0.996094 0.761719 " fill-opacity="1" fill-rule="nonzero"/></g></g></g></g></g></g><g clip-path="url(#7c5292f0ad)"><g clip-path="url(#f99e51c37c)"><g transform="matrix(1, 0, 0, 1, 772, 629)"><g clip-path="url(#2e31aba96a)"><g clip-path="url(#601bcb2654)"><g clip-path="url(#12ec182fb8)"><path fill="#fff3c2" d="M 0.511719 0.183594 L 25.511719 0.183594 L 25.511719 25.1875 L 0.511719 25.1875 Z M 0.511719 0.183594 " fill-opacity="1" fill-rule="nonzero"/></g></g></g></g></g></g><g clip-path="url(#dd35af39b8)"><g clip-path="url(#d92cb72062)"><g transform="matrix(1, 0, 0, 1, 939, 565)"><g clip-path="url(#fbf04bf886)"><g clip-path="url(#307d08cb64)"><g clip-path="url(#2ab7bca917)"><path fill="#fff3c2" d="M 0.828125 0.917969 L 25.832031 0.917969 L 25.832031 25.921875 L 0.828125 25.921875 Z M 0.828125 0.917969 " fill-opacity="1" fill-rule="nonzero"/></g></g></g></g></g></g><g clip-path="url(#dd34a8f4c2)"><g clip-path="url(#9a8ca857b6)"><g transform="matrix(1, 0, 0, 1, 430, 529)"><g clip-path="url(#39dc7864a4)"><g clip-path="url(#d7a6dd15d0)"><g clip-path="url(#bd1feec0c8)"><path fill="#fff3c2" d="M 0.148438 0.761719 L 25.152344 0.761719 L 25.152344 25.765625 L 0.148438 25.765625 Z M 0.148438 0.761719 " fill-opacity="1" fill-rule="nonzero"/></g></g></g></g></g></g><g clip-path="url(#d0c873cd41)"><g clip-path="url(#bee476ef12)"><g transform="matrix(1, 0, 0, 1, 491, 504)"><g clip-path="url(#a6534c7659)"><g clip-path="url(#cff4a52aba)"><g clip-path="url(#a45b31d5de)"><path fill="#fff3c2" d="M 0.945312 0.761719 L 25.949219 0.761719 L 25.949219 25.761719 L 0.945312 25.761719 Z M 0.945312 0.761719 " fill-opacity="1" fill-rule="nonzero"/></g></g></g></g></g></g><g clip-path="url(#52ae35d6b2)"><g clip-path="url(#0d1c6d94fd)"><g transform="matrix(1, 0, 0, 1, 694, 234)"><g clip-path="url(#cf08daf65b)"><g clip-path="url(#44b176505f)"><g clip-path="url(#3cfd901581)"><path fill="#fff3c2" d="M 0.996094 0.148438 L 26 0.148438 L 26 25.152344 L 0.996094 25.152344 Z M 0.996094 0.148438 " fill-opacity="1" fill-rule="nonzero"/></g></g></g></g></g></g><g clip-path="url(#bb7f25087b)"><g clip-path="url(#5564d954fc)"><g transform="matrix(1, 0, 0, 1, 846, 234)"><g clip-path="url(#1303fa8873)"><g clip-path="url(#f1e13bff5a)"><g clip-path="url(#cd411a49b6)"><path fill="#fff3c2" d="M 0.304688 0.148438 L 25.308594 0.148438 L 25.308594 25.152344 L 0.304688 25.152344 Z M 0.304688 0.148438 " fill-opacity="1" fill-rule="nonzero"/></g></g></g></g></g></g><g clip-path="url(#108a4fb021)"><g clip-path="url(#99b48c6649)"><g transform="matrix(1, 0, 0, 1, 518, 616)"><g clip-path="url(#b03b6f5b33)"><g clip-path="url(#aebb510173)"><g clip-path="url(#9e8cf12c4c)"><path fill="#fff3c2" d="M 0.6875 0.683594 L 25.6875 0.683594 L 25.6875 25.6875 L 0.6875 25.6875 Z M 0.6875 0.683594 " fill-opacity="1" fill-rule="nonzero"/></g></g></g></g></g></g><g clip-path="url(#3c0fb8bafe)"><g clip-path="url(#529dacbb59)"><g transform="matrix(1, 0, 0, 1, 772, 392)"><g clip-path="url(#cf41655ba7)"><g clip-path="url(#c92d2978da)"><g clip-path="url(#f137fd030d)"><path fill="#fff3c2" d="M 0.511719 0.5 L 25.511719 0.5 L 25.511719 25.5 L 0.511719 25.5 Z M 0.511719 0.5 " fill-opacity="1" fill-rule="nonzero"/></g></g></g></g></g></g><g clip-path="url(#89d1da0f3b)"><g clip-path="url(#7914f8ebbf)"><g transform="matrix(1, 0, 0, 1, 889, 324)"><g clip-path="url(#d66b4a74c9)"><g clip-path="url(#66f29acc8a)"><g clip-path="url(#1e864149b6)"><path fill="#fff3c2" d="M 0.820312 0.0664062 L 25.824219 0.0664062 L 25.824219 25.070312 L 0.820312 25.070312 Z M 0.820312 0.0664062 " fill-opacity="1" fill-rule="nonzero"/></g></g></g></g></g></g><g clip-path="url(#54b54e4d8d)"><g clip-path="url(#27df8a976c)"><g transform="matrix(1, 0, 0, 1, 952, 479)"><g clip-path="url(#4ae63e06a6)"><g clip-path="url(#e8d7f02632)"><g clip-path="url(#cfa8a2c021)"><path fill="#fff3c2" d="M 0.328125 0.757812 L 25.332031 0.757812 L 25.332031 25.761719 L 0.328125 25.761719 Z M 0.328125 0.757812 " fill-opacity="1" fill-rule="nonzero"/></g></g></g></g></g></g><g clip-path="url(#e5f042eb27)"><g clip-path="url(#1c02dff1a1)"><g transform="matrix(1, 0, 0, 1, 1029, 417)"><g clip-path="url(#69d76a6dc5)"><g clip-path="url(#54be505853)"><g clip-path="url(#5077389f1a)"><path fill="#fff3c2" d="M 0.296875 0.5 L 25.300781 0.5 L 25.300781 25.503906 L 0.296875 25.503906 Z M 0.296875 0.5 " fill-opacity="1" fill-rule="nonzero"/></g></g></g></g></g></g><g clip-path="url(#dc14d55b70)"><g clip-path="url(#57d55e1081)"><g transform="matrix(1, 0, 0, 1, 986, 324)"><g clip-path="url(#b0a1ec8d12)"><g clip-path="url(#520e44be0d)"><g clip-path="url(#e0ea52d822)"><path fill="#fff3c2" d="M 0.363281 0.0664062 L 25.367188 0.0664062 L 25.367188 25.070312 L 0.363281 25.070312 Z M 0.363281 0.0664062 " fill-opacity="1" fill-rule="nonzero"/></g></g></g></g></g></g><g clip-path="url(#af838b687f)"><g clip-path="url(#edd713d372)"><g transform="matrix(1, 0, 0, 1, 474, 280)"><g clip-path="url(#aa318cb962)"><g clip-path="url(#88714a67af)"><g clip-path="url(#34f09a92fc)"><path fill="#fff3c2" d="M 0.121094 0.0546875 L 25.125 0.0546875 L 25.125 25.058594 L 0.121094 25.058594 Z M 0.121094 0.0546875 " fill-opacity="1" fill-rule="nonzero"/></g></g></g></g></g></g><g clip-path="url(#6a861d9a56)"><g clip-path="url(#0212f89e2a)"><g transform="matrix(1, 0, 0, 1, 338, 379)"><g clip-path="url(#9e3b8e0714)"><g clip-path="url(#4c74d0b78f)"><g clip-path="url(#d7f9457b54)"><path fill="#fff3c2" d="M 0.722656 0.996094 L 25.726562 0.996094 L 25.726562 26 L 0.722656 26 Z M 0.722656 0.996094 " fill-opacity="1" fill-rule="nonzero"/></g></g></g></g></g></g></svg>