<svg width="1280" height="720" xmlns="http://www.w3.org/2000/svg" xmlns:xlink="http://www.w3.org/1999/xlink" overflow="hidden"><g><rect x="0" y="0" width="1280" height="720" fill="#FFFFFF"/><rect x="103" y="95" width="1066" height="509" stroke="#0E2841" stroke-width="2" stroke-miterlimit="8" fill="none"/><path d="M640 0 640 720" stroke="#0E2841" stroke-width="2" stroke-miterlimit="8" fill="none" fill-rule="evenodd"/><path d="M506.904 192.965 510.965 188.904 530.5 208.44 550.035 188.904 554.096 192.965 534.56 212.5 554.096 232.035 550.035 236.096 530.5 216.56 510.965 236.096 506.904 232.035 526.44 212.5Z" stroke="#C00000" stroke-width="2" stroke-miterlimit="8" fill="#FF3300" fill-rule="evenodd" fill-opacity="0.780392"/><path d="M262.904 264.965 266.965 260.904 286.5 280.44 306.035 260.904 310.096 264.965 290.56 284.5 310.096 304.035 306.035 308.096 286.5 288.56 266.965 308.096 262.904 304.035 282.44 284.5Z" stroke="#C00000" stroke-width="2" stroke-miterlimit="8" fill="#FF3300" fill-rule="evenodd" fill-opacity="0.780392"/><path d="M262.892 459.193 266.977 455.157 286.5 474.915 306.023 455.157 310.108 459.193 290.536 479 310.108 498.807 306.023 502.843 286.5 483.085 266.977 502.843 262.892 498.807 282.464 479Z" stroke="#C00000" stroke-width="2" stroke-miterlimit="8" fill="#FF3300" fill-rule="evenodd" fill-opacity="0.780392"/><path d="M421.892 340.193 425.977 336.157 445.5 355.915 465.023 336.157 469.108 340.193 449.536 360 469.108 379.807 465.023 383.843 445.5 364.085 425.977 383.843 421.892 379.807 441.464 360Z" stroke="#000000" stroke-width="2" stroke-miterlimit="8" fill="#262626" fill-rule="evenodd" fill-opacity="0.780392"/><path d="M316.551 291.36 326.351 295.572 325.298 298.022 315.498 293.81ZM333.7 298.731 343.5 302.943 342.447 305.393 332.647 301.181ZM350.85 306.102 360.65 310.314 359.597 312.764 349.797 308.552ZM368 313.473 377.8 317.685 376.747 320.135 366.947 315.923ZM385.15 320.844 394.95 325.056 393.897 327.506 384.097 323.294ZM402.299 328.215 411.067 331.983 410.014 334.433 401.246 330.665ZM323.361 304.263 313.501 291.501 329.546 289.872C330.279 289.797 330.933 290.331 331.007 291.064 331.082 291.796 330.548 292.45 329.815 292.525L316.158 293.911 317.079 291.77 325.471 302.633C325.921 303.216 325.814 304.053 325.231 304.503 324.648 304.953 323.811 304.846 323.361 304.263ZM403.204 321.53 413.063 334.292 397.018 335.921C396.286 335.996 395.631 335.462 395.557 334.729 395.483 333.997 396.016 333.342 396.749 333.268L410.406 331.882 409.486 334.023 401.093 323.16C400.643 322.577 400.751 321.74 401.333 321.29 401.916 320.84 402.753 320.947 403.204 321.53Z" fill="#0E2841"/><path d="M3.04174 0.261656 12.2028 5.72539 10.8369 8.01566 1.67581 2.55193ZM19.0736 9.82319 28.2347 15.2869 26.8688 17.5772 17.7077 12.1135ZM35.1055 19.3847 44.2666 24.8485 42.9007 27.1387 33.7396 21.675ZM51.1374 28.9463 60.2985 34.41 58.9326 36.7003 49.7715 31.2365ZM67.1693 38.5078 76.3304 43.9715 74.9644 46.2618 65.8034 40.7981ZM83.2012 48.0693 92.3623 53.5331 90.9963 55.8233 81.8352 50.3596ZM99.2331 57.6309 103.191 59.9912 101.825 62.2815 97.8671 59.9211ZM8.0972 13.9486 0.00100086 0.000596908 16.1209 0.495242C16.857 0.517827 17.4353 1.13281 17.4127 1.86884 17.3901 2.60488 16.7752 3.18324 16.0391 3.16065L2.31808 2.73962 3.51212 0.737564 10.4035 12.6099C10.7732 13.2468 10.5566 14.0628 9.9197 14.4324 9.28283 14.8021 8.46687 14.5855 8.0972 13.9486ZM96.769 48.5944 104.865 62.5424 88.7453 62.0478C88.0093 62.0252 87.4309 61.4102 87.4535 60.6742 87.4761 59.9381 88.0911 59.3598 88.8271 59.3824L102.548 59.8034 101.354 61.8054 94.4627 49.9331C94.0931 49.2962 94.3097 48.4802 94.9465 48.1106 95.5834 47.7409 96.3993 47.9575 96.769 48.5944Z" fill="#0E2841" transform="matrix(1 0 0 -1 308.5 453.043)"/><path d="M2.65454 1.50892 8.69517 10.3003 6.49732 11.8105 0.456693 3.01908ZM13.2256 16.8939 19.2663 25.6852 17.0684 27.1954 11.0278 18.404ZM23.7968 32.2788 29.8374 41.0702 27.6395 42.5803 21.5989 33.7889ZM34.3679 47.6637 40.4085 56.4551 38.2106 57.9653 32.17 49.1739ZM44.939 63.0487 50.9796 71.84 48.7818 73.3502 42.7411 64.5588ZM1.52924 16.0559 0.000660166 0.000960261 14.4397 7.18495C15.099 7.51297 15.3676 8.31334 15.0395 8.97262 14.7115 9.63191 13.9112 9.90045 13.2519 9.57243L0.961533 3.45752 2.8828 2.13741 4.1839 15.8031C4.2537 16.5362 3.71601 17.187 2.98294 17.2568 2.24988 17.3266 1.59903 16.7889 1.52924 16.0559ZM53.8175 64.4945 55.3461 80.5494 40.907 73.3654C40.2478 73.0374 39.9792 72.237 40.3072 71.5777 40.6352 70.9184 41.4356 70.6499 42.0949 70.9779L54.3852 77.0928 52.464 78.4129 51.1629 64.7472C51.0931 64.0142 51.6308 63.3633 52.3638 63.2935 53.0969 63.2237 53.7477 63.7614 53.8175 64.4945Z" fill="#0E2841" transform="matrix(-1 0 0 1 525.847 251.5)"/><path d="M2.74722-1.33333 13.4139-1.33333 13.4139 1.33334 2.74722 1.33333ZM21.4139-1.33333 32.0806-1.33332 32.0806 1.33334 21.4139 1.33334ZM40.0806-1.33332 50.7472-1.33332 50.7472 1.33335 40.0806 1.33335ZM58.7472-1.33332 69.4139-1.33331 69.4139 1.33335 58.7472 1.33335ZM77.4139-1.33331 88.0806-1.33331 88.0806 1.33336 77.4139 1.33336ZM96.0806-1.3333 106.747-1.3333 106.747 1.33337 96.0806 1.33336ZM114.747-1.3333 125.414-1.3333 125.414 1.33337 114.747 1.33337ZM133.414-1.33329 144.081-1.33329 144.081 1.33338 133.414 1.33337ZM152.081-1.33329 162.747-1.33328 162.747 1.33338 152.081 1.33338ZM170.747-1.33328 181.414-1.33328 181.414 1.33339 170.747 1.33338ZM189.414-1.33328 200.081-1.33327 200.081 1.33339 189.414 1.33339ZM208.081-1.33327 218.747-1.33327 218.747 1.3334 208.081 1.3334ZM226.747-1.33327 237.414-1.33326 237.414 1.3334 226.747 1.3334ZM245.414-1.33326 256.081-1.33326 256.081 1.33341 245.414 1.33341ZM264.081-1.33325 274.747-1.33325 274.747 1.33342 264.081 1.33341ZM282.747-1.33325 293.414-1.33325 293.414 1.33342 282.747 1.33342ZM301.414-1.33324 312.081-1.33324 312.081 1.33343 301.414 1.33342ZM320.081-1.33324 330.747-1.33323 330.747 1.33343 320.081 1.33343ZM338.747-1.33323 346.869-1.33323 346.869 1.33344 338.747 1.33343ZM14.0991 7.83221 0.00116511 2.91949e-08 14.0991-7.83221C14.7429-8.18982 15.5546-7.9579 15.9122-7.31419 16.2698-6.67047 16.0379-5.85874 15.3942-5.50112L3.39419 1.16554 3.39419-1.16554 15.3942 5.50113C16.0379 5.85875 16.2698 6.67048 15.9122 7.3142 15.5546 7.95791 14.7429 8.18983 14.0991 7.83221ZM335.513-7.83211 349.611 0.00010477 335.513 7.83231C334.869 8.18993 334.058 7.958 333.7 7.31429 333.342 6.67058 333.574 5.85884 334.218 5.50122L346.218-1.16544 346.218 1.16565 334.218-5.50102C333.574-5.85864 333.342-6.67038 333.7-7.31409 334.058-7.9578 334.869-8.18973 335.513-7.83211Z" fill="#0E2841" transform="matrix(-1 0 0 1 829.112 360.5)"/><path d="M833.892 340.193 837.977 336.157 857.5 355.915 877.023 336.157 881.108 340.193 861.536 360 881.108 379.807 877.023 383.843 857.5 364.085 837.977 383.843 833.892 379.807 853.464 360Z" stroke="#C00000" stroke-width="2" stroke-miterlimit="8" fill="#FF3300" fill-rule="evenodd" fill-opacity="0.780392"/></g></svg>