<svg width="1280" height="720" xmlns="http://www.w3.org/2000/svg" xmlns:xlink="http://www.w3.org/1999/xlink" overflow="hidden"><g><rect x="0" y="0" width="1280" height="720" fill="#FFFFFF"/><rect x="103" y="95" width="1066" height="509" stroke="#0E2841" stroke-width="2" stroke-miterlimit="8" fill="none"/><path d="M640 0 640 720" stroke="#FF0000" stroke-width="2" stroke-miterlimit="8" fill="none" fill-rule="evenodd"/><path d="M166.157 148.977 170.193 144.892 190 164.464 209.807 144.892 213.843 148.977 194.085 168.5 213.843 188.023 209.807 192.108 190 172.536 170.193 192.108 166.157 188.023 185.915 168.5Z" stroke="#C00000" stroke-width="2" stroke-miterlimit="8" fill="#FF3300" fill-rule="evenodd" fill-opacity="0.780392"/><path d="M421.892 340.193 425.977 336.157 445.5 355.915 465.023 336.157 469.108 340.193 449.536 360 469.108 379.807 465.023 383.843 445.5 364.085 425.977 383.843 421.892 379.807 441.464 360Z" stroke="#000000" stroke-width="2" stroke-miterlimit="8" fill="#262626" fill-rule="evenodd" fill-opacity="0.780392"/><path d="M222.509 196.015 231.18 202.227 229.627 204.395 220.956 198.183ZM237.684 206.886 246.355 213.098 244.802 215.266 236.131 209.054ZM252.858 217.757 261.53 223.969 259.977 226.137 251.305 219.925ZM268.033 228.628 276.704 234.839 275.151 237.007 266.48 230.795ZM283.208 239.498 291.879 245.71 290.326 247.878 281.655 241.666ZM298.383 250.369 307.054 256.581 305.501 258.749 296.83 252.537ZM313.557 261.24 322.228 267.452 320.676 269.619 312.004 263.408ZM328.732 272.11 337.403 278.322 335.85 280.49 327.179 274.278ZM343.907 282.981 352.578 289.193 351.025 291.361 342.354 285.149ZM359.081 293.852 367.753 300.064 366.2 302.232 357.528 296.02ZM374.256 304.723 382.927 310.935 381.374 313.102 372.703 306.89ZM389.431 315.593 398.102 321.805 396.549 323.973 387.878 317.761ZM404.605 326.464 411.595 331.471 410.042 333.639 403.052 328.632ZM226.401 210.078 219.501 195.501 235.523 197.344C236.254 197.428 236.779 198.089 236.695 198.821 236.611 199.552 235.95 200.077 235.218 199.993L221.581 198.424 222.938 196.529 228.811 208.937C229.126 209.603 228.842 210.398 228.176 210.713 227.51 211.028 226.716 210.743 226.401 210.078ZM406.149 319.575 413.048 334.153 397.027 332.31C396.295 332.225 395.77 331.564 395.854 330.833 395.939 330.101 396.6 329.576 397.331 329.66L410.969 331.229 409.611 333.124 403.739 320.716C403.424 320.051 403.708 319.256 404.373 318.941 405.039 318.626 405.834 318.91 406.149 319.575Z" fill="#0E2841"/><path d="M2.74668-1.33333 13.4133-1.33333 13.4133 1.33334 2.74668 1.33333ZM21.4133-1.33332 32.08-1.33332 32.08 1.33335 21.4133 1.33334ZM40.08-1.33331 50.7467-1.33331 50.7467 1.33336 40.08 1.33335ZM58.7467-1.3333 69.4133-1.3333 69.4133 1.33337 58.7467 1.33336ZM77.4133-1.33329 88.08-1.33329 88.08 1.33338 77.4133 1.33337ZM96.08-1.33328 106.747-1.33328 106.747 1.33339 96.08 1.33338ZM114.747-1.33327 125.413-1.33327 125.413 1.3334 114.747 1.33339ZM133.413-1.33326 144.08-1.33326 144.08 1.33341 133.413 1.3334ZM152.08-1.33325 162.747-1.33325 162.747 1.33342 152.08 1.33341ZM170.747-1.33324 181.413-1.33324 181.413 1.33343 170.747 1.33342ZM189.413-1.33323 198.4-1.33323 198.4 1.33344 189.413 1.33343ZM14.0991 7.83222 0.00116511-1.72253e-08 14.0991-7.8322C14.7429-8.18982 15.5546-7.95789 15.9122-7.31418 16.2698-6.67047 16.0379-5.85873 15.3942-5.50112L3.39419 1.16554 3.39419-1.16554 15.3942 5.50113C16.0379 5.85875 16.2698 6.67049 15.9122 7.3142 15.5546 7.95791 14.7429 8.18983 14.0991 7.83222ZM187.048-7.83211 201.146 0.000104723 187.048 7.83231C186.404 8.18992 185.592 7.958 185.235 7.31429 184.877 6.67058 185.109 5.85884 185.753 5.50122L197.753-1.16544 197.753 1.16565 185.753-5.50103C185.109-5.85864 184.877-6.67038 185.235-7.31409 185.592-7.9578 186.404-8.18973 187.048-7.83211Z" fill="#0E2841" transform="matrix(-1 0 0 1 680.647 360.5)"/><path d="M682.12 340.229 686.229 336.12 706 355.891 725.771 336.12 729.88 340.229 710.109 360 729.88 379.771 725.771 383.88 706 364.109 686.229 383.88 682.12 379.771 701.891 360Z" stroke="#C00000" stroke-width="2" stroke-miterlimit="8" fill="#FF3300" fill-rule="evenodd" fill-opacity="0.780392"/><text fill="#0E2841" font-family="Aptos,Aptos_MSFontService,sans-serif" font-weight="400" font-size="64" transform="translate(323.073 589)">L</text><text fill="#0E2841" font-family="Aptos,Aptos_MSFontService,sans-serif" font-weight="400" font-size="64" transform="translate(897.315 589)">R</text></g></svg>