<svg xmlns="http://www.w3.org/2000/svg" xmlns:xlink="http://www.w3.org/1999/xlink" zoomAndPan="magnify" preserveAspectRatio="xMidYMid meet" version="1.0" viewBox="770.14 148.9 525.42 520.7"><defs><g/><clipPath id="670e876dfd"><path d="M 829.242188 578.671875 L 866.652344 578.671875 L 866.652344 616.082031 L 829.242188 616.082031 Z M 829.242188 578.671875 " clip-rule="nonzero"/></clipPath><clipPath id="7d0bac32d4"><path d="M 847.949219 578.671875 C 837.617188 578.671875 829.242188 587.046875 829.242188 597.375 C 829.242188 607.707031 837.617188 616.082031 847.949219 616.082031 C 858.277344 616.082031 866.652344 607.707031 866.652344 597.375 C 866.652344 587.046875 858.277344 578.671875 847.949219 578.671875 Z M 847.949219 578.671875 " clip-rule="nonzero"/></clipPath><clipPath id="eb003eaf05"><path d="M 0.242188 0.671875 L 37.652344 0.671875 L 37.652344 38.082031 L 0.242188 38.082031 Z M 0.242188 0.671875 " clip-rule="nonzero"/></clipPath><clipPath id="6bd2b112eb"><path d="M 18.949219 0.671875 C 8.617188 0.671875 0.242188 9.046875 0.242188 19.375 C 0.242188 29.707031 8.617188 38.082031 18.949219 38.082031 C 29.277344 38.082031 37.652344 29.707031 37.652344 19.375 C 37.652344 9.046875 29.277344 0.671875 18.949219 0.671875 Z M 18.949219 0.671875 " clip-rule="nonzero"/></clipPath><clipPath id="ed870e0dd9"><rect x="0" width="38" y="0" height="39"/></clipPath><clipPath id="32dc90cf67"><path d="M 1174.222656 227.460938 L 1211.632812 227.460938 L 1211.632812 264.871094 L 1174.222656 264.871094 Z M 1174.222656 227.460938 " clip-rule="nonzero"/></clipPath><clipPath id="245e10ff29"><path d="M 1192.929688 227.460938 C 1182.597656 227.460938 1174.222656 235.835938 1174.222656 246.167969 C 1174.222656 256.496094 1182.597656 264.871094 1192.929688 264.871094 C 1203.257812 264.871094 1211.632812 256.496094 1211.632812 246.167969 C 1211.632812 235.835938 1203.257812 227.460938 1192.929688 227.460938 Z M 1192.929688 227.460938 " clip-rule="nonzero"/></clipPath><clipPath id="bd716ef18d"><path d="M 0.222656 0.460938 L 37.632812 0.460938 L 37.632812 37.871094 L 0.222656 37.871094 Z M 0.222656 0.460938 " clip-rule="nonzero"/></clipPath><clipPath id="2327deb523"><path d="M 18.929688 0.460938 C 8.597656 0.460938 0.222656 8.835938 0.222656 19.167969 C 0.222656 29.496094 8.597656 37.871094 18.929688 37.871094 C 29.257812 37.871094 37.632812 29.496094 37.632812 19.167969 C 37.632812 8.835938 29.257812 0.460938 18.929688 0.460938 Z M 18.929688 0.460938 " clip-rule="nonzero"/></clipPath><clipPath id="830a5f4345"><rect x="0" width="38" y="0" height="38"/></clipPath></defs><path stroke-linecap="butt" transform="matrix(0.75, 0, 0, 0.75, 783.860007, 628.500924)" fill="none" stroke-linejoin="miter" d="M -0.000842383 1.998768 L 670.59815 1.998768 " stroke="#002c5c" stroke-width="4" stroke-opacity="1" stroke-miterlimit="4"/><path stroke-linecap="round" transform="matrix(0.75, 0, 0, 0.75, 783.860007, 628.500924)" fill-opacity="1" fill="#002c5c" fill-rule="nonzero" stroke-linejoin="round" d="M 671.59815 -4.001233 L 679.59815 1.998768 L 671.59815 7.998768 Z M 671.59815 -4.001233 " stroke="#002c5c" stroke-width="4" stroke-opacity="1" stroke-miterlimit="4"/><path stroke-linecap="butt" transform="matrix(0, -0.75, 0.75, 0, 809.30447, 660.597635)" fill="none" stroke-linejoin="miter" d="M -0.000028645 2.000291 L 670.598963 2.000291 " stroke="#002c5c" stroke-width="4" stroke-opacity="1" stroke-miterlimit="4"/><path stroke-linecap="round" transform="matrix(0, -0.75, 0.75, 0, 809.30447, 660.597635)" fill-opacity="1" fill="#002c5c" fill-rule="nonzero" stroke-linejoin="round" d="M 671.598963 -3.99971 L 679.598964 2.000291 L 671.598963 8.000291 Z M 671.598963 -3.99971 " stroke="#002c5c" stroke-width="4" stroke-opacity="1" stroke-miterlimit="4"/><g fill="#000000" fill-opacity="1"><g transform="translate(1281.310718, 669.599986)"><g><path d="M 5.515625 -7.125 L 0.703125 -13.9375 L 3.296875 -13.9375 L 6.890625 -8.6875 L 10.453125 -13.9375 L 13.03125 -13.9375 L 8.21875 -7.125 L 13.296875 0 L 10.6875 0 L 6.890625 -5.5625 L 3.046875 0 L 0.46875 0 Z M 5.515625 -7.125 "/></g></g></g><g fill="#000000" fill-opacity="1"><g transform="translate(770.110815, 164.815221)"><g><path d="M 0.03125 -13.9375 L 2.46875 -13.9375 L 5.484375 -6 C 6.117188 -4.28125 6.507812 -3.015625 6.65625 -2.203125 L 6.75 -2.203125 C 6.832031 -2.515625 7.007812 -3.097656 7.28125 -3.953125 C 7.550781 -4.816406 7.773438 -5.507812 7.953125 -6.03125 L 10.796875 -13.9375 L 13.25 -13.9375 L 7.25 1.9375 C 6.664062 3.46875 5.972656 4.566406 5.171875 5.234375 C 4.367188 5.910156 3.375 6.25 2.1875 6.25 C 1.550781 6.25 0.921875 6.175781 0.296875 6.03125 L 0.296875 4.21875 C 0.710938 4.320312 1.21875 4.375 1.8125 4.375 C 2.539062 4.375 3.160156 4.171875 3.671875 3.765625 C 4.179688 3.359375 4.59375 2.738281 4.90625 1.90625 L 5.640625 0.046875 Z M 0.03125 -13.9375 "/></g></g></g><g clip-path="url(#670e876dfd)"><g clip-path="url(#7d0bac32d4)"><g transform="matrix(1, 0, 0, 1, 829, 578)"><g clip-path="url(#ed870e0dd9)"><g clip-path="url(#eb003eaf05)"><g clip-path="url(#6bd2b112eb)"><path fill="#38b6ff" d="M 0.242188 0.671875 L 37.652344 0.671875 L 37.652344 38.082031 L 0.242188 38.082031 Z M 0.242188 0.671875 " fill-opacity="1" fill-rule="nonzero"/></g></g></g></g></g></g><g clip-path="url(#32dc90cf67)"><g clip-path="url(#245e10ff29)"><g transform="matrix(1, 0, 0, 1, 1174, 227)"><g clip-path="url(#830a5f4345)"><g clip-path="url(#bd716ef18d)"><g clip-path="url(#2327deb523)"><path fill="#ff914d" d="M 0.222656 0.460938 L 37.632812 0.460938 L 37.632812 37.871094 L 0.222656 37.871094 Z M 0.222656 0.460938 " fill-opacity="1" fill-rule="nonzero"/></g></g></g></g></g></g><path stroke-linecap="butt" transform="matrix(0.75, 0, 0, 0.75, 866.653331, 264.872584)" fill="none" stroke-linejoin="miter" d="M -0.00131583 443.336577 L 41.847645 443.336577 L 41.847645 385.805324 L 115.46744 385.805324 L 115.46744 267.221984 L 337.269534 267.221984 L 337.269534 65.503224 L 435.035164 65.503224 L 435.035164 -0.00198737 " stroke="#002c5c" stroke-width="4" stroke-opacity="1" stroke-miterlimit="4"/><g fill="#000000" fill-opacity="1"><g transform="translate(839.638332, 559.520608)"><g><path d="M 14.171875 0 L 11.9375 -5.75 L 4.578125 -5.75 L 2.359375 0 L 0 0 L 7.25 -18.640625 L 9.359375 -18.640625 L 16.59375 0 Z M 11.234375 -7.828125 L 9.15625 -13.4375 L 8.265625 -16.21875 C 8.015625 -15.207031 7.75 -14.28125 7.46875 -13.4375 L 5.359375 -7.828125 Z M 11.234375 -7.828125 "/></g></g></g><g fill="#000000" fill-opacity="1"><g transform="translate(1184.480803, 213.26626)"><g><path d="M 2.53125 -18.5625 L 7.828125 -18.5625 C 10.304688 -18.5625 12.097656 -18.191406 13.203125 -17.453125 C 14.304688 -16.710938 14.859375 -15.550781 14.859375 -13.96875 C 14.859375 -12.863281 14.554688 -11.953125 13.953125 -11.234375 C 13.359375 -10.523438 12.488281 -10.066406 11.34375 -9.859375 L 11.34375 -9.71875 C 12.769531 -9.476562 13.816406 -8.984375 14.484375 -8.234375 C 15.160156 -7.492188 15.5 -6.507812 15.5 -5.28125 C 15.5 -3.625 14.929688 -2.328125 13.796875 -1.390625 C 12.660156 -0.460938 11.078125 0 9.046875 0 L 2.53125 0 Z M 4.859375 -10.671875 L 8.296875 -10.671875 C 9.742188 -10.671875 10.796875 -10.898438 11.453125 -11.359375 C 12.117188 -11.828125 12.453125 -12.609375 12.453125 -13.703125 C 12.453125 -14.710938 12.085938 -15.441406 11.359375 -15.890625 C 10.640625 -16.335938 9.5 -16.5625 7.9375 -16.5625 L 4.859375 -16.5625 Z M 4.859375 -8.703125 L 4.859375 -1.984375 L 8.609375 -1.984375 C 10.097656 -1.984375 11.203125 -2.269531 11.921875 -2.84375 C 12.640625 -3.414062 13 -4.285156 13 -5.453125 C 13 -6.566406 12.617188 -7.382812 11.859375 -7.90625 C 11.097656 -8.4375 9.957031 -8.703125 8.4375 -8.703125 Z M 4.859375 -8.703125 "/></g></g></g></svg>