<svg width="1280" height="720" xmlns="http://www.w3.org/2000/svg" xmlns:xlink="http://www.w3.org/1999/xlink" overflow="hidden"><g><rect x="0" y="0" width="1280" height="720" fill="#FFFFFF"/><path d="M518 361C518 310.19 559.19 269 610 269 660.81 269 702 310.19 702 361 702 411.81 660.81 453 610 453 559.19 453 518 411.81 518 361Z" stroke="#156082" stroke-width="2" stroke-miterlimit="8" stroke-dasharray="8 6" stroke-opacity="0.501961" fill="none" fill-rule="evenodd"/><path d="M607 361C607 359.343 608.343 358 610 358 611.657 358 613 359.343 613 361 613 362.657 611.657 364 610 364 608.343 364 607 362.657 607 361Z" fill="#156082" fill-rule="evenodd" fill-opacity="0.501961"/><text fill="#AAAAAA" font-family="Cambria Math,Cambria Math_MSFontService,sans-serif" font-weight="400" font-size="21.3333" transform="translate(617.744 366)">𝐶</text><path d="M545 391.5C545 357.534 572.534 330 606.5 330 640.466 330 668 357.534 668 391.5 668 425.466 640.466 453 606.5 453 572.534 453 545 425.466 545 391.5Z" stroke="#F2AA84" stroke-width="2" stroke-miterlimit="8" fill="none" fill-rule="evenodd"/><path d="M606 389.5C606 388.119 607.119 387 608.5 387 609.881 387 611 388.119 611 389.5 611 390.881 609.881 392 608.5 392 607.119 392 606 390.881 606 389.5Z" fill="#F2AA84" fill-rule="evenodd"/><path d="M549 321C549 291.729 572.953 268 602.5 268 632.047 268 656 291.729 656 321 656 350.271 632.047 374 602.5 374 572.953 374 549 350.271 549 321Z" stroke="#D86ECC" stroke-width="2" stroke-miterlimit="8" fill="none" fill-rule="evenodd"/><path d="M601 321C601 319.895 601.672 319 602.5 319 603.328 319 604 319.895 604 321 604 322.105 603.328 323 602.5 323 601.672 323 601 322.105 601 321Z" fill="#D86ECC" fill-rule="evenodd"/><text fill="#F2AA84" font-family="Cambria Math,Cambria Math_MSFontService,sans-serif" font-weight="400" font-size="10.6667" transform="translate(581.916 391)">𝐶</text><text fill="#F2AA84" font-family="Cambria Math,Cambria Math_MSFontService,sans-serif" font-weight="400" font-size="7.78667" transform="translate(587.623 393)">𝑙𝑒𝑓𝑡</text><text fill="#D86ECC" font-family="Cambria Math,Cambria Math_MSFontService,sans-serif" font-weight="400" font-size="10.6667" transform="translate(606.744 322)">𝐶</text><text fill="#D86ECC" font-family="Cambria Math,Cambria Math_MSFontService,sans-serif" font-weight="400" font-size="7.78667" transform="translate(612.451 324)">𝑟𝑖𝑔ℎ𝑡</text><path d="M408.099 402.028 409.028 401.099 413.5 405.571 417.972 401.099 418.901 402.028 414.429 406.5 418.901 410.972 417.972 411.901 413.5 407.429 409.028 411.901 408.099 410.972 412.571 406.5Z" stroke="#000000" stroke-width="2" stroke-miterlimit="8" fill="#262626" fill-rule="evenodd" fill-opacity="0.780392"/><path d="M372.099 396.028 373.028 395.099 377.5 399.571 381.972 395.099 382.901 396.028 378.429 400.5 382.901 404.972 381.972 405.901 377.5 401.429 373.028 405.901 372.099 404.972 376.571 400.5Z" stroke="#C00000" stroke-width="2" stroke-miterlimit="8" fill="#FF3300" fill-rule="evenodd" fill-opacity="0.780392"/><path d="M292.099 381.028 293.028 380.099 297.5 384.571 301.972 380.099 302.901 381.028 298.429 385.5 302.901 389.972 301.972 390.901 297.5 386.429 293.028 390.901 292.099 389.972 296.571 385.5Z" stroke="#000000" stroke-width="2" stroke-miterlimit="8" fill="#262626" fill-rule="evenodd" fill-opacity="0.780392"/><path d="M300.099 314.028 301.028 313.099 305.5 317.571 309.972 313.099 310.901 314.028 306.429 318.5 310.901 322.972 309.972 323.901 305.5 319.429 301.028 323.901 300.099 322.972 304.571 318.5Z" stroke="#000000" stroke-width="2" stroke-miterlimit="8" fill="#262626" fill-rule="evenodd" fill-opacity="0.780392"/><path d="M337.099 323.028 338.028 322.099 342.5 326.571 346.972 322.099 347.901 323.028 343.429 327.5 347.901 331.972 346.972 332.901 342.5 328.429 338.028 332.901 337.099 331.972 341.571 327.5Z" stroke="#000000" stroke-width="2" stroke-miterlimit="8" fill="#262626" fill-rule="evenodd" fill-opacity="0.780392"/><path d="M395.099 331.028 396.028 330.099 400.5 334.571 404.972 330.099 405.901 331.028 401.429 335.5 405.901 339.972 404.972 340.901 400.5 336.429 396.028 340.901 395.099 339.972 399.571 335.5Z" stroke="#000000" stroke-width="2" stroke-miterlimit="8" fill="#262626" fill-rule="evenodd" fill-opacity="0.780392"/><path d="M334.099 408.028 335.028 407.099 339.5 411.571 343.972 407.099 344.901 408.028 340.429 412.5 344.901 416.972 343.972 417.901 339.5 413.429 335.028 417.901 334.099 416.972 338.571 412.5Z" stroke="#000000" stroke-width="2" stroke-miterlimit="8" fill="#262626" fill-rule="evenodd" fill-opacity="0.780392"/><path d="M264 361C264 310.19 305.19 269 356 269 406.81 269 448 310.19 448 361 448 411.81 406.81 453 356 453 305.19 453 264 411.81 264 361Z" stroke="#156082" stroke-width="2" stroke-miterlimit="8" fill="none" fill-rule="evenodd"/><path d="M353 361C353 359.343 354.343 358 356 358 357.657 358 359 359.343 359 361 359 362.657 357.657 364 356 364 354.343 364 353 362.657 353 361Z" fill="#156082" fill-rule="evenodd"/><text font-family="Cambria Math,Cambria Math_MSFontService,sans-serif" font-weight="400" font-size="21.3333" transform="translate(348.889 384)">𝐶</text><path d="M337.099 448.028 338.028 447.099 342.5 451.571 346.972 447.099 347.901 448.028 343.429 452.5 347.901 456.972 346.972 457.901 342.5 453.429 338.028 457.901 337.099 456.972 341.571 452.5Z" stroke="#000000" stroke-width="2" stroke-miterlimit="8" fill="#262626" fill-rule="evenodd" fill-opacity="0.780392"/><path d="M349.099 263.028 350.028 262.099 354.5 266.571 358.972 262.099 359.901 263.028 355.429 267.5 359.901 271.972 358.972 272.901 354.5 268.429 350.028 272.901 349.099 271.972 353.571 267.5Z" stroke="#000000" stroke-width="2" stroke-miterlimit="8" fill="#262626" fill-rule="evenodd" fill-opacity="0.780392"/><path d="M660.871 401.992 661.775 401.135 666 405.595 670.225 401.135 671.129 401.992 666.858 406.5 671.129 411.008 670.225 411.865 666 407.405 661.775 411.865 660.871 411.008 665.142 406.5Z" stroke="#000000" stroke-width="2" stroke-miterlimit="8" fill="#262626" fill-rule="evenodd" fill-opacity="0.780392"/><path d="M624.099 396.028 625.028 395.099 629.5 399.571 633.972 395.099 634.901 396.028 630.429 400.5 634.901 404.972 633.972 405.901 629.5 401.429 625.028 405.901 624.099 404.972 628.571 400.5Z" stroke="#0D0D0D" stroke-width="2" stroke-miterlimit="8" fill="#000000" fill-rule="evenodd" fill-opacity="0.780392"/><path d="M544.871 380.992 545.775 380.135 550 384.595 554.225 380.135 555.129 380.992 550.858 385.5 555.129 390.008 554.225 390.865 550 386.405 545.775 390.865 544.871 390.008 549.142 385.5Z" stroke="#000000" stroke-width="2" stroke-miterlimit="8" fill="#262626" fill-rule="evenodd" fill-opacity="0.780392"/><path d="M552.099 314.028 553.028 313.099 557.5 317.571 561.972 313.099 562.901 314.028 558.429 318.5 562.901 322.972 561.972 323.901 557.5 319.429 553.028 323.901 552.099 322.972 556.571 318.5Z" stroke="#000000" stroke-width="2" stroke-miterlimit="8" fill="#262626" fill-rule="evenodd" fill-opacity="0.780392"/><path d="M589.871 322.992 590.775 322.135 595 326.595 599.225 322.135 600.129 322.992 595.858 327.5 600.129 332.008 599.225 332.865 595 328.405 590.775 332.865 589.871 332.008 594.142 327.5Z" stroke="#000000" stroke-width="2" stroke-miterlimit="8" fill="#262626" fill-rule="evenodd" fill-opacity="0.780392"/><path d="M648.099 331.028 649.028 330.099 653.5 334.571 657.972 330.099 658.901 331.028 654.429 335.5 658.901 339.972 657.972 340.901 653.5 336.429 649.028 340.901 648.099 339.972 652.571 335.5Z" stroke="#000000" stroke-width="2" stroke-miterlimit="8" fill="#262626" fill-rule="evenodd" fill-opacity="0.780392"/><path d="M586.099 408.028 587.028 407.099 591.5 411.571 595.972 407.099 596.901 408.028 592.429 412.5 596.901 416.972 595.972 417.901 591.5 413.429 587.028 417.901 586.099 416.972 590.571 412.5Z" stroke="#000000" stroke-width="2" stroke-miterlimit="8" fill="#262626" fill-rule="evenodd" fill-opacity="0.780392"/><path d="M589.871 447.992 590.775 447.135 595 451.595 599.225 447.135 600.129 447.992 595.858 452.5 600.129 457.008 599.225 457.865 595 453.405 590.775 457.865 589.871 457.008 594.142 452.5Z" stroke="#000000" stroke-width="2" stroke-miterlimit="8" fill="#262626" fill-rule="evenodd" fill-opacity="0.780392"/><path d="M601.099 263.028 602.028 262.099 606.5 266.571 610.972 262.099 611.901 263.028 607.429 267.5 611.901 271.972 610.972 272.901 606.5 268.429 602.028 272.901 601.099 271.972 605.571 267.5Z" stroke="#000000" stroke-width="2" stroke-miterlimit="8" fill="#262626" fill-rule="evenodd" fill-opacity="0.780392"/><path d="M462 359 497.561 359 497.561 361 462 361ZM496.228 356 504.228 360 496.228 364Z" fill="#156082"/></g></svg>